<svg width="27" height="27" viewBox="0 0 27 27" fill="none" xmlns="http://www.w3.org/2000/svg">
<path d="M25.7727 6.1364H4.19019L8.23143 2.09507C8.71072 1.61587 8.71072 0.838758 8.23143 0.359468C7.75222 -0.119823 6.97511 -0.119823 6.49582 0.359468L0.359468 6.49582C-0.119823 6.97503 -0.119823 7.75214 0.359468 8.23143L6.49582 14.3678C6.73547 14.6074 7.04957 14.7273 7.36367 14.7273C7.67777 14.7273 7.99187 14.6074 8.23143 14.3678C8.71072 13.8886 8.71072 13.1115 8.23143 12.6322L4.19019 8.59094H25.7727C26.4505 8.59094 27 8.04145 27 7.36367C27 6.68589 26.4505 6.1364 25.7727 6.1364Z" fill="#A6A5A9"/>
<path d="M20.5041 12.6322C20.0249 12.153 19.2478 12.153 18.7685 12.6322C18.2892 13.1114 18.2892 13.8885 18.7685 14.3678L22.8099 18.4091H1.22731C0.549531 18.4091 4.08866e-05 18.9586 4.08866e-05 19.6364C4.08866e-05 20.3142 0.549531 20.8636 1.22731 20.8636H22.8099L18.7686 24.905C18.2893 25.3842 18.2893 26.1613 18.7686 26.6406C19.0082 26.8801 19.3223 27 19.6364 27C19.9505 27 20.2646 26.8801 20.5041 26.6405L26.6405 20.5041C27.1198 20.0249 27.1198 19.2478 26.6405 18.7685L20.5041 12.6322Z" fill="#A6A5A9"/>
</svg>
