<svg width="42" height="62" viewBox="0 0 42 62" fill="none" xmlns="http://www.w3.org/2000/svg">
<path d="M35.207 34.8948H27.5596M35.207 19.8218H7.20354H35.207ZM35.207 27.3584H7.20354H35.207ZM21.6134 34.8948H7.20391H21.6134Z" stroke="#0D5ADC" stroke-width="2" stroke-linecap="round" stroke-linejoin="round"/>
<path d="M21.2053 55.0211C15.1637 52.1666 15.3826 44.0502 15.3826 44.0502C15.3826 44.0502 18.1029 42.1437 21.2053 42.0117M21.2396 55.0211C27.4568 52.1666 27.2318 44.0502 27.2318 44.0502C27.2318 44.0502 24.4322 42.1437 21.2396 42.0117" stroke="#EF4058" stroke-width="2" stroke-linecap="round" stroke-linejoin="round"/>
<path d="M41 61H1V1H29.9255L35.463 6.53354L40.9998 12.0662V60.9998L41 61Z" stroke="#0D5ADC" stroke-width="2" stroke-linecap="round" stroke-linejoin="round"/>
<path d="M39.0225 11.669H29.9994V1.34131" stroke="#0D5ADC" stroke-width="2" stroke-linecap="round" stroke-linejoin="round"/>
</svg>
