<svg width="64" height="50" viewBox="0 0 64 50" fill="none" xmlns="http://www.w3.org/2000/svg">
<path d="M45.6259 18.5011L54.5769 9.48472M54.421 18.3291L45.6004 9.44385L54.421 18.3291Z" stroke="#5586D9" stroke-width="2" stroke-linecap="round" stroke-linejoin="round"/>
<path d="M37.2175 13.9855C37.2175 21.1571 42.9892 26.9709 50.1088 26.9709C57.2284 26.9709 63 21.1571 63 13.9855C63 6.81383 57.2284 1 50.1088 1C42.9892 1 37.2175 6.81383 37.2175 13.9855Z" stroke="#5586D9" stroke-width="2" stroke-linecap="round" stroke-linejoin="round"/>
<path d="M7.48096 15.5085L10.7229 18.7743L19.9887 9.44067" stroke="#5586D9" stroke-width="2" stroke-linecap="round" stroke-linejoin="round"/>
<path d="M1 13.9855C1 21.1571 6.77166 26.9709 13.8913 26.9709C21.0109 26.9709 26.7825 21.1571 26.7825 13.9855C26.7825 6.81383 21.0109 1 13.8913 1C6.77166 1 1 6.81383 1 13.9855V13.9855Z" stroke="#5586D9" stroke-width="2" stroke-linecap="round" stroke-linejoin="round"/>
<path d="M2.99622 39.0381H3.13225M8.1366 39.0381H24.7861H8.1366Z" stroke="#5586D9" stroke-width="2" stroke-linecap="round" stroke-linejoin="round"/>
<path d="M2.99622 49H3.13225M8.1366 49H24.7861H8.1366Z" stroke="#5586D9" stroke-width="2" stroke-linecap="round" stroke-linejoin="round"/>
<path d="M39.2139 39.0381H39.3499M44.3543 39.0381H61.0038H44.3543Z" stroke="#5586D9" stroke-width="2" stroke-linecap="round" stroke-linejoin="round"/>
<path d="M39.2139 49H39.3499M44.3543 49H61.0038H44.3543Z" stroke="#5586D9" stroke-width="2" stroke-linecap="round" stroke-linejoin="round"/>
</svg>
