<svg width="297" height="66" viewBox="0 0 297 66" fill="none" xmlns="http://www.w3.org/2000/svg">
<path d="M1.58184 23.5809C21.582 54.5809 146.582 60.0809 276.629 25.9851" stroke="#0D5ADC" stroke-width="2" stroke-dasharray="8 4"/>
<g clip-path="url(#clip0_100:2)">
<path d="M295.953 18.0997C295.872 17.8483 295.655 17.6673 295.394 17.6328L262.698 13.2971C262.432 13.2614 262.169 13.3862 262.028 13.6153C261.887 13.8444 261.894 14.1347 262.045 14.3566L267.121 21.8059L264.283 30.9709C264.198 31.2466 264.296 31.5431 264.521 31.7146C264.541 31.7303 264.563 31.7454 264.586 31.7585C264.745 31.8533 264.929 31.8683 265.099 31.8255L265.101 31.8337L272.653 29.926L276.613 35.7388C276.654 35.8007 276.705 35.8537 276.763 35.8976C276.86 35.9719 276.978 36.0192 277.102 36.0328C277.3 36.0549 277.498 35.9888 277.643 35.8518L295.771 18.8052C295.963 18.6247 296.034 18.3505 295.953 18.0997Z" fill="#0D5ADC"/>
<path d="M264.031 14.8494L289.935 18.284L268.198 20.9664L264.031 14.8494Z" fill="white"/>
<path d="M268.39 22.3166L286.892 20.0336L270.272 24.8439C270.158 24.8773 270.055 24.9387 269.973 25.0235L266.424 28.6662L268.39 22.3166Z" fill="#F4F9FC"/>
<path d="M268.39 22.3166L286.892 20.0336L270.272 24.8439C270.158 24.8773 270.055 24.9387 269.973 25.0235L266.424 28.6662L268.39 22.3166Z" fill="white"/>
<path d="M267.106 29.9205L270.368 26.5724L271.835 28.7258L267.106 29.9205Z" fill="#F4F9FC"/>
<path opacity="0.1" d="M267.106 29.9205L270.368 26.5724L271.835 28.7258L267.106 29.9205Z" fill="#0D5ADC"/>
<path d="M277.29 34.3118L271.554 25.8929L292.775 19.7505L277.29 34.3118Z" fill="white"/>
</g>
<defs>
<clipPath id="clip0_100:2">
<rect width="30" height="30" fill="white" transform="translate(272.395) rotate(37.2987)"/>
</clipPath>
</defs>
</svg>
