<svg width="605" height="81" viewBox="0 0 605 81" fill="none" xmlns="http://www.w3.org/2000/svg">
<path d="M-5 51C-5 51 138 83.9999 212 51M212 51C241 29.5185 233 0.999939 212 1C191 1.00006 187 32.7308 212 51ZM212 51C246.667 76.3333 469 104 586 40" stroke="#0D5ADC" stroke-width="2" stroke-dasharray="8 4"/>
<g clip-path="url(#clip0_220:231)">
<path d="M604.556 30.4463C604.454 30.203 604.221 30.0419 603.958 30.0304L571.008 28.5859C570.74 28.5738 570.489 28.7212 570.369 28.9618C570.248 29.2024 570.28 29.4911 570.451 29.6987L576.162 36.6729L574.141 46.052C574.08 46.3341 574.204 46.6208 574.443 46.7719C574.465 46.7857 574.488 46.7988 574.512 46.8098C574.679 46.8903 574.863 46.8891 575.029 46.8314L575.032 46.8395L582.386 44.2753L586.842 49.7175C586.889 49.7754 586.944 49.8237 587.006 49.8624C587.109 49.9278 587.23 49.9647 587.355 49.9673C587.554 49.9719 587.746 49.8886 587.878 49.7394L604.438 31.1651C604.613 30.9685 604.659 30.6891 604.556 30.4463Z" fill="#0D5ADC"/>
<path d="M572.472 30.0149L598.578 31.159L577.161 35.7419L572.472 30.0149Z" fill="white"/>
<path d="M577.471 37.0701L595.701 33.1693L579.567 39.4221C579.457 39.4654 579.36 39.5355 579.286 39.6272L576.071 43.5679L577.471 37.0701Z" fill="#F4F9FC"/>
<path d="M577.471 37.0701L595.701 33.1693L579.567 39.4221C579.457 39.4654 579.36 39.5355 579.286 39.6272L576.071 43.5679L577.471 37.0701Z" fill="white"/>
<path d="M576.86 44.7575L579.815 41.1354L581.466 43.1516L576.86 44.7575Z" fill="#F4F9FC"/>
<path opacity="0.1" d="M576.86 44.7575L579.815 41.1354L581.466 43.1516L576.86 44.7575Z" fill="#0D5ADC"/>
<path d="M587.391 48.2365L580.937 40.3543L601.536 32.3702L587.391 48.2365Z" fill="white"/>
</g>
<defs>
<clipPath id="clip0_220:231">
<rect width="30" height="30" fill="white" transform="translate(579.499 14.4878) rotate(32.2551)"/>
</clipPath>
</defs>
</svg>
