<svg width="1192" height="128" viewBox="0 0 1192 128" fill="none" xmlns="http://www.w3.org/2000/svg">
<path d="M1 83.9999C33.6667 57.9999 150.41 47.6963 238.5 83.9999C357 132.836 524 90 524 90C524 90 575 83.9999 649 51M649 51C678 29.5185 670 0.999939 649 1C628 1.00006 624 32.7308 649 51ZM649 51C683.667 76.3333 955 129 1191 65" stroke="#0D5ADC" stroke-width="2" stroke-dasharray="8 4"/>
<g clip-path="url(#clip0_218:103)">
<path d="M408.004 107.057C407.972 106.795 407.791 106.577 407.541 106.495L376.207 96.1993C375.952 96.115 375.671 96.1892 375.49 96.3884C375.309 96.5875 375.262 96.8741 375.37 97.1201L378.983 105.378C378.983 105.378 382.902 114.363 382.922 114.38C382.746 114.391 383.061 114.502 382.922 114.38L385.741 120.824C385.77 120.892 385.811 120.954 385.859 121.007C385.941 121.098 386.048 121.167 386.167 121.203C386.358 121.261 386.565 121.233 386.733 121.125L407.696 107.717C407.918 107.575 408.038 107.319 408.004 107.057Z" fill="#0D5ADC"/>
<path d="M377.23 97.9707L404.658 106.738L381.687 107.876L377.23 97.9707Z" fill="white"/>
<path d="M386.67 119.546L382.285 109.849L404.576 108.093L386.67 119.546Z" fill="white"/>
</g>
<defs>
<clipPath id="clip0_218:103">
<rect width="30" height="30" fill="white" transform="translate(388.192 84.9204) rotate(47.9345)"/>
</clipPath>
</defs>
</svg>
