<svg width="1342" height="128" viewBox="0 0 1342 128" fill="none" xmlns="http://www.w3.org/2000/svg">
<path d="M1 96.9998C33.6667 70.9998 225 29.9998 297 42.9998C297 42.9998 389 51.4237 429 80.6543M429 80.6543C458 101.846 450 127 429 127C408 127 398 98.6539 429 80.6543ZM429 80.6543C460 39.6544 1079 87.6543 1315 23.6543" stroke="#0D5ADC" stroke-width="2" stroke-dasharray="8 4"/>
<g clip-path="url(#clip0_218:104)">
<path d="M1341.07 22.2563C1341.04 21.9942 1340.86 21.775 1340.61 21.6914L1309.34 11.2061C1309.09 11.1203 1308.8 11.1928 1308.62 11.3908C1308.44 11.5889 1308.39 11.8751 1308.5 12.1218L1312.06 20.4016L1307.53 28.8581C1307.39 29.1126 1307.43 29.4223 1307.62 29.6335C1307.64 29.6529 1307.66 29.6719 1307.68 29.689C1307.81 29.8125 1307.99 29.8622 1308.17 29.8525L1308.17 29.861L1315.94 29.4269L1318.72 35.8878C1318.75 35.9564 1318.79 36.0181 1318.84 36.0723C1318.92 36.1637 1319.03 36.2325 1319.15 36.2696C1319.34 36.3291 1319.55 36.3017 1319.71 36.195L1340.76 22.9143C1340.98 22.7737 1341.1 22.518 1341.07 22.2563Z" fill="#0D5ADC"/>
<path d="M1310.35 12.9837L1335.13 21.2906L1313.28 19.7827L1310.35 12.9837Z" fill="white"/>
<path d="M1313.21 21.145L1331.81 22.4287L1314.57 23.9844C1314.46 23.9956 1314.34 24.0362 1314.25 24.1039L1310.07 27.0037L1313.21 21.145Z" fill="#F4F9FC"/>
<path d="M1313.21 21.145L1331.81 22.4287L1314.57 23.9844C1314.46 23.9956 1314.34 24.0362 1314.25 24.1039L1310.07 27.0037L1313.21 21.145Z" fill="white"/>
<path d="M1310.5 28.3648L1314.34 25.6995L1315.37 28.093L1310.5 28.3648Z" fill="#F4F9FC"/>
<path opacity="0.1" d="M1310.5 28.3648L1314.34 25.6995L1315.37 28.093L1310.5 28.3648Z" fill="#0D5ADC"/>
<path d="M1319.66 34.6158L1315.63 25.2583L1337.64 23.2713L1319.66 34.6158Z" fill="white"/>
</g>
<defs>
<clipPath id="clip0_218:104">
<rect width="30" height="30" fill="white" transform="translate(1321.39) rotate(48.2815)"/>
</clipPath>
</defs>
</svg>
