<svg width="727" height="123" viewBox="0 0 727 123" fill="none" xmlns="http://www.w3.org/2000/svg">
<path d="M1 83.9999C33.6667 57.9999 150.41 47.6963 238.5 83.9999C357 132.836 524 90 524 90C524 90 575 83.9999 649 51M649 51C678 29.5185 670 0.999939 649 1C628 1.00006 624 32.7308 649 51ZM649 51C658.562 57.9879 686.132 67.0555 726 75.1806" stroke="#0D5ADC" stroke-width="2" stroke-dasharray="8 4"/>
<path d="M413.084 105.137C413.051 104.875 412.871 104.657 412.621 104.575L381.287 94.2789C381.032 94.1946 380.751 94.2688 380.57 94.468C380.389 94.6671 380.342 94.9537 380.45 95.1997L384.063 103.458C384.063 103.458 387.981 112.442 388.001 112.459C387.826 112.47 388.14 112.582 388.001 112.459L390.821 118.903C390.85 118.972 390.89 119.033 390.939 119.087C391.021 119.178 391.127 119.246 391.247 119.282C391.438 119.341 391.644 119.312 391.813 119.204L412.775 105.797C412.997 105.655 413.117 105.398 413.084 105.137Z" fill="#0D5ADC"/>
<path d="M382.31 96.0503L409.738 104.818L386.766 105.956L382.31 96.0503Z" fill="white"/>
<path d="M391.75 117.626L387.365 107.928L409.656 106.173L391.75 117.626Z" fill="white"/>
</svg>
