<svg width="12" height="13" viewBox="0 0 12 13" fill="none" xmlns="http://www.w3.org/2000/svg">
<path fill-rule="evenodd" clip-rule="evenodd" d="M10.2851 11.6958C10.6756 12.0863 11.3095 12.087 11.701 11.6974C12.0924 11.3078 12.0931 10.6754 11.7026 10.2849L7.41989 6.00267L11.7033 1.71883C12.0938 1.32828 12.093 0.695878 11.7015 0.306312C11.31 -0.0832543 10.6761 -0.082461 10.2856 0.308085L6.0056 4.58854L1.70996 0.293353C1.31941 -0.0971505 0.685492 -0.0978761 0.294053 0.291732C-0.0973851 0.68134 -0.0981096 1.31375 0.292436 1.70425L4.59147 6.00282L0.294038 10.3007C-0.0964654 10.6913 -0.0956735 11.3237 0.295807 11.7132C0.687287 12.1028 1.32121 12.102 1.71171 11.7115L6.00575 7.41696L10.2851 11.6958Z" fill="#A6A5A9"/>
</svg>
