<svg width="40" height="40" viewBox="0 0 40 40" fill="none" xmlns="http://www.w3.org/2000/svg">
<path d="M40 13.249C40 11.6355 38.6871 10.3226 37.0735 10.3226C36.2923 10.3226 35.5568 10.6271 35.0045 11.18L33.0923 13.0923L30.9677 15.2168V8.98065C33.1529 8.66581 34.8387 6.78645 34.8387 4.51613C34.8387 2.02581 32.8129 0 30.3226 0H4.51613C2.02581 0 0 2.02581 0 4.51613V36.7742C0 37.1303 0.289032 37.4194 0.645161 37.4194H3.87097V39.3548C3.87097 39.711 4.16 40 4.51613 40H30.3226C30.6787 40 30.9677 39.711 30.9677 39.3548V23.4929L37.2303 17.2303L37.8929 16.5677C37.5587 18.2323 36.7439 19.7626 35.5168 20.9903L32.4477 24.0594L33.36 24.9716L36.429 21.9026C38.26 20.0716 39.2839 17.6535 39.3439 15.0735C39.7613 14.5561 40 13.9239 40 13.249ZM35.9168 12.0923C36.2258 11.7832 36.6368 11.6129 37.0735 11.6129C37.9755 11.6129 38.7097 12.3471 38.7097 13.249C38.7097 13.6858 38.5394 14.0968 38.2303 14.4058L36.7742 15.8619L34.4606 13.5484L35.9168 12.0923ZM33.5484 14.4606L34.249 15.1613L26.129 23.2813L25.4284 22.5806L33.5484 14.4606ZM18.2045 31.4858L19.5316 28.831L21.4916 30.791L18.8368 32.1181L18.2045 31.4858ZM20.2671 27.7419L24.5161 23.4929L26.8297 25.8064L22.5806 30.0555L20.2671 27.7419ZM30.3226 1.29032C32.1013 1.29032 33.5484 2.73742 33.5484 4.51613C33.5484 6.29484 32.1013 7.74194 30.3226 7.74194H7.67097C8.50968 6.92129 9.03226 5.77935 9.03226 4.51613C9.03226 3.2529 8.50968 2.11097 7.67097 1.29032H30.3226ZM5.16129 7.67677V5.80645C5.16129 5.45097 5.45097 5.16129 5.80645 5.16129H7.67677C7.41935 6.42323 6.42323 7.41935 5.16129 7.67677ZM1.29032 36.129V4.51613C1.29032 2.73742 2.73742 1.29032 4.51613 1.29032C6.07355 1.29032 7.37677 2.40065 7.67677 3.87097H5.80645C4.73935 3.87097 3.87097 4.73935 3.87097 5.80645V36.129H1.29032ZM29.6774 38.7097H5.16129V9.03226H29.6774V16.5071L26.8297 19.3548H7.74194V20.6452H25.5394L24.249 21.9355H7.74194V23.2258H22.9587L18.8987 27.2858C18.8484 27.3361 18.8155 27.3961 18.7852 27.4568L18.7781 27.4529L16.8426 31.3239C16.7187 31.5723 16.7671 31.8723 16.9639 32.0684L17.1523 32.2581L15.6729 33.7374L16.5852 34.6497L18.0645 33.1703L18.2535 33.3594C18.3774 33.4832 18.5426 33.5484 18.7097 33.5484C18.8071 33.5484 18.9065 33.5258 18.9981 33.4806L22.869 31.5452L22.8652 31.5381C22.9258 31.5077 22.9858 31.4748 23.0361 31.4245L28.1974 26.2632L29.6774 24.7832V38.7097ZM27.7419 24.8942L27.0413 24.1935L35.1613 16.0735L35.8619 16.7742L27.7419 24.8942Z" fill="#0D5ADC"/>
<path d="M7.74194 11.6128H27.0968V12.9031H7.74194V11.6128Z" fill="#0D5ADC"/>
<path d="M7.74194 14.1936H27.0968V15.4839H7.74194V14.1936Z" fill="#0D5ADC"/>
<path d="M7.74194 16.7742H27.0968V18.0645H7.74194V16.7742Z" fill="#0D5ADC"/>
<path d="M7.74194 32.2581H14.8387V33.5484H7.74194V32.2581Z" fill="#0D5ADC"/>
<path d="M7.74194 34.8386H27.0968V36.1289H7.74194V34.8386Z" fill="#0D5ADC"/>
</svg>
