<svg width="40" height="40" viewBox="0 0 40 40" fill="none" xmlns="http://www.w3.org/2000/svg">
<path d="M13.3334 28.6667H12C11.6319 28.6667 11.3334 28.9652 11.3334 29.3334C11.3334 29.7016 11.6319 30.0001 12 30.0001H13.3334C13.7015 30.0001 14 29.7016 14 29.3334C14 28.9652 13.7015 28.6667 13.3334 28.6667Z" fill="white"/>
<path d="M32 28.6667H16C15.6319 28.6667 15.3334 28.9652 15.3334 29.3334C15.3334 29.7016 15.6319 30.0001 16 30.0001H32C32.3682 30.0001 32.6667 29.7016 32.6667 29.3334C32.6667 28.9652 32.3682 28.6667 32 28.6667Z" fill="white"/>
<path d="M13.3334 24.6667H12C11.6319 24.6667 11.3334 24.9652 11.3334 25.3334C11.3334 25.7016 11.6319 26.0001 12 26.0001H13.3334C13.7015 26.0001 14 25.7016 14 25.3334C14 24.9652 13.7015 24.6667 13.3334 24.6667Z" fill="white"/>
<path d="M32 24.6667H16C15.6319 24.6667 15.3334 24.9652 15.3334 25.3334C15.3334 25.7016 15.6319 26.0001 16 26.0001H32C32.3682 26.0001 32.6667 25.7016 32.6667 25.3334C32.6667 24.9652 32.3682 24.6667 32 24.6667Z" fill="white"/>
<path d="M13.3334 20.6667H12C11.6319 20.6667 11.3334 20.9652 11.3334 21.3334C11.3334 21.7016 11.6319 22.0001 12 22.0001H13.3334C13.7015 22.0001 14 21.7016 14 21.3334C14 20.9652 13.7015 20.6667 13.3334 20.6667Z" fill="white"/>
<path d="M32 20.6667H16C15.6319 20.6667 15.3334 20.9652 15.3334 21.3334C15.3334 21.7016 15.6319 22.0001 16 22.0001H32C32.3682 22.0001 32.6667 21.7016 32.6667 21.3334C32.6667 20.9652 32.3682 20.6667 32 20.6667Z" fill="white"/>
<path d="M13.3334 16.6667H12C11.6319 16.6667 11.3334 16.9652 11.3334 17.3334C11.3334 17.7016 11.6319 18.0001 12 18.0001H13.3334C13.7015 18.0001 14 17.7016 14 17.3334C14 16.9652 13.7015 16.6667 13.3334 16.6667Z" fill="white"/>
<path d="M32 16.6667H16C15.6319 16.6667 15.3334 16.9652 15.3334 17.3334C15.3334 17.7016 15.6319 18.0001 16 18.0001H32C32.3682 18.0001 32.6667 17.7016 32.6667 17.3334C32.6667 16.9652 32.3682 16.6667 32 16.6667Z" fill="white"/>
<path d="M13.3334 12.6667H12C11.6319 12.6667 11.3334 12.9652 11.3334 13.3334C11.3334 13.7016 11.6319 14.0001 12 14.0001H13.3334C13.7015 14.0001 14 13.7016 14 13.3334C14 12.9652 13.7015 12.6667 13.3334 12.6667Z" fill="white"/>
<path d="M32 12.6667H16C15.6319 12.6667 15.3334 12.9652 15.3334 13.3334C15.3334 13.7016 15.6319 14.0001 16 14.0001H32C32.3682 14.0001 32.6667 13.7016 32.6667 13.3334C32.6667 12.9652 32.3682 12.6667 32 12.6667Z" fill="white"/>
<path d="M36.658 9.958C36.6547 9.89958 36.6433 9.84192 36.624 9.78667C36.6167 9.76533 36.6114 9.74467 36.602 9.724C36.5696 9.6515 36.5245 9.58533 36.4687 9.52867L27.1354 0.195333C27.0787 0.139583 27.0125 0.0944167 26.94 0.062C26.9194 0.0526667 26.8987 0.0473333 26.878 0.04C26.8223 0.0208333 26.7642 0.00916667 26.7054 0.00533333C26.694 0.00733333 26.6814 0 26.6667 0H8.00004C7.63187 0 7.33337 0.2985 7.33337 0.666667V2.66667H4.00004C3.63187 2.66667 3.33337 2.96517 3.33337 3.33333V39.3333C3.33337 39.7015 3.63187 40 4.00004 40H32C32.3682 40 32.6667 39.7015 32.6667 39.3333V36H36C36.3682 36 36.6667 35.7015 36.6667 35.3333V10C36.6667 9.98533 36.6594 9.97267 36.658 9.958ZM27.3334 2.276L34.3907 9.33333H27.3334V2.276ZM31.3334 38.6667H4.66671V4H7.33337V35.3333C7.33337 35.7015 7.63187 36 8.00004 36H31.3334V38.6667ZM35.3334 34.6667H8.66671V1.33333H26V10C26 10.3682 26.2985 10.6667 26.6667 10.6667H35.3334V34.6667Z" fill="white"/>
<path d="M16 6H12C11.6319 6 11.3334 6.2985 11.3334 6.66667V10.6667C11.3334 11.0348 11.6319 11.3333 12 11.3333H16C16.3682 11.3333 16.6667 11.0348 16.6667 10.6667V6.66667C16.6667 6.2985 16.3682 6 16 6ZM15.3334 10H12.6667V7.33333H15.3334V10Z" fill="white"/>
</svg>
