<svg width="40" height="40" viewBox="0 0 40 40" fill="none" xmlns="http://www.w3.org/2000/svg">
<path d="M39.3333 0.37207H0.666667C0.2985 0.37207 0 0.67057 0 1.03874V27.7054C0 28.0736 0.2985 28.3721 0.666667 28.3721H12.7047C12.7247 28.5941 12.7573 28.8127 12.7967 29.0294L9.14 33.3874C8.90317 33.6693 8.93975 34.0898 9.22167 34.3267C9.30108 34.3934 9.39508 34.4407 9.496 34.4647L13.5213 35.4261L15.1673 39.2261C15.3137 39.5639 15.7062 39.7192 16.044 39.5729C16.1392 39.5317 16.2233 39.4689 16.29 39.3894L19.9407 35.0387C19.9607 35.0387 19.98 35.0387 20 35.0387C20.02 35.0387 20.0393 35.0387 20.0593 35.0387L23.71 39.3894C23.9465 39.6716 24.367 39.7086 24.6492 39.4721C24.7286 39.4055 24.7914 39.3212 24.8327 39.2261L26.4787 35.4261L30.504 34.4647C30.8622 34.3794 31.0834 34.0199 30.9981 33.6617C30.974 33.5608 30.9268 33.4668 30.86 33.3874L27.2033 29.0294C27.2427 28.8127 27.2753 28.5941 27.2953 28.3721H39.3333C39.7015 28.3721 40 28.0736 40 27.7054V1.03874C40 0.670487 39.7015 0.37207 39.3333 0.37207ZM15.962 37.7054L14.612 34.5921C14.5286 34.3996 14.3594 34.2576 14.1553 34.2087L10.8553 33.4201L13.2487 30.5674C13.2613 30.5967 13.278 30.6234 13.2907 30.6527C13.3773 30.8527 13.4713 31.0427 13.5753 31.2314C13.618 31.3101 13.6633 31.3874 13.7087 31.4641C13.8003 31.6165 13.8971 31.7658 13.9993 31.9121C14.0707 32.0141 14.1453 32.1121 14.222 32.2121C14.3113 32.3254 14.4033 32.4361 14.5 32.5454C14.5967 32.6547 14.7093 32.7754 14.8207 32.8861C14.9027 32.9681 14.9873 33.0474 15.074 33.1254C15.146 33.1921 15.2107 33.2621 15.286 33.3254C15.3613 33.3887 15.432 33.4314 15.504 33.4874C15.5367 33.5127 15.5647 33.5421 15.598 33.5667C15.658 33.6121 15.7213 33.6514 15.7827 33.6947C15.8787 33.7614 15.9733 33.8334 16.0727 33.8947C16.262 34.0161 16.4573 34.1267 16.6553 34.2281C16.7313 34.2667 16.8087 34.3021 16.886 34.3381C17.0638 34.4217 17.2427 34.4977 17.4227 34.5661C17.4747 34.5854 17.526 34.6074 17.578 34.6254C17.8305 34.7142 18.0878 34.7887 18.3487 34.8487L18.356 34.8507L15.962 37.7054ZM21.252 33.5641C20.9463 33.6287 20.636 33.6695 20.324 33.6861H20.3153C20.21 33.6914 20.1047 33.6987 19.9987 33.6987C19.8927 33.6987 19.7873 33.6914 19.682 33.6861H19.6733C19.362 33.6694 19.0524 33.6288 18.7473 33.5647L18.6913 33.5534C18.5727 33.5274 18.4553 33.4954 18.3393 33.4621C18.2907 33.4481 18.2413 33.4354 18.1933 33.4201C18.11 33.3941 18.028 33.3634 17.946 33.3341C17.864 33.3047 17.786 33.2761 17.7073 33.2434C17.6587 33.2227 17.6107 33.2007 17.5627 33.1767C17.4533 33.1274 17.3447 33.0774 17.2387 33.0221L17.1853 32.9927C16.9105 32.8457 16.6475 32.6777 16.3987 32.4901C16.26 32.3867 16.132 32.2727 16.006 32.1601C15.857 32.0272 15.7148 31.8867 15.58 31.7394C15.5267 31.6821 15.4693 31.6274 15.4187 31.5681C15.2325 31.3491 15.0627 31.1167 14.9107 30.8727C14.888 30.8367 14.8687 30.7987 14.844 30.7614C14.7023 30.5246 14.5775 30.2779 14.4707 30.0234C14.4613 30.0007 14.4507 29.9781 14.442 29.9567C14.3239 29.6651 14.2289 29.3647 14.158 29.0581C14.158 29.0461 14.1487 29.0367 14.1453 29.0247C14.0485 28.5917 13.9998 28.1492 14 27.7054C13.998 24.3917 16.6827 21.7038 19.9963 21.7017C23.3101 21.6997 25.9979 24.3844 26 27.6981C26.0002 28.1469 25.9502 28.5943 25.8507 29.032C25.8473 29.0433 25.8407 29.0533 25.838 29.0647C25.7672 29.3709 25.6724 29.6712 25.5547 29.9627C25.5453 29.986 25.5347 30.0093 25.5247 30.0293C25.4182 30.2822 25.2938 30.5273 25.1527 30.7627C25.1307 30.8 25.1107 30.8393 25.086 30.8767C24.934 31.1202 24.7644 31.3524 24.5787 31.5713C24.5287 31.63 24.472 31.6833 24.4193 31.7407C24.2828 31.8893 24.1388 32.0311 23.988 32.1653C23.8613 32.278 23.7353 32.392 23.5973 32.4947C23.4593 32.5973 23.336 32.684 23.2013 32.77L23.1933 32.7747C23.0727 32.8513 22.9493 32.922 22.824 32.9887C22.7993 33.002 22.7753 33.016 22.7507 33.0287C22.65 33.0813 22.5507 33.1287 22.4447 33.1747C22.3913 33.1987 22.3387 33.2233 22.2847 33.2453C22.21 33.2767 22.134 33.304 22.058 33.3313C21.982 33.3587 21.888 33.394 21.8013 33.4207C21.7553 33.4353 21.7087 33.448 21.662 33.4613C21.544 33.4947 21.4253 33.528 21.3053 33.5533L21.252 33.5641ZM29.1447 33.4181L25.8447 34.2067C25.6406 34.2556 25.4714 34.3976 25.388 34.5901L24.038 37.7054L21.644 34.8527H21.65C21.9118 34.7929 22.1701 34.7182 22.4233 34.6287C22.4733 34.6114 22.5213 34.5907 22.5713 34.5727C22.7573 34.5021 22.9407 34.4247 23.1207 34.3387C23.194 34.3047 23.2673 34.2721 23.3393 34.2347C23.5393 34.1307 23.7393 34.0181 23.9313 33.8947C24.024 33.8361 24.1127 33.7701 24.2027 33.7067C24.2693 33.6607 24.336 33.6187 24.4027 33.5701C24.438 33.5434 24.4693 33.5121 24.504 33.4847C24.5707 33.4301 24.648 33.3841 24.716 33.3267C24.784 33.2694 24.8533 33.1934 24.924 33.1307C25.012 33.0507 25.0987 32.9701 25.1827 32.8867C25.2924 32.777 25.3987 32.6641 25.5013 32.5481C25.598 32.4387 25.69 32.3281 25.78 32.2147C25.8567 32.1167 25.9313 32.0147 26.0027 31.9147C26.1053 31.7694 26.2027 31.6201 26.2927 31.4681C26.3393 31.3907 26.3847 31.3127 26.426 31.2334C26.5296 31.0454 26.624 30.8532 26.7093 30.6567C26.7213 30.6227 26.7387 30.5954 26.7513 30.5654L29.1447 33.4181ZM38.6667 27.0387H27.2993C26.9376 23.0071 23.3759 20.032 19.3442 20.3938C15.8139 20.7107 13.0162 23.5084 12.6993 27.0387H1.33333V1.7054H38.6667V27.0387Z" fill="#0D5ADC"/>
<path d="M3.33341 3.03857C2.96525 3.03857 2.66675 3.33707 2.66675 3.70524V6.3719H4.00008V4.37191H6.00008V3.03857H3.33341Z" fill="#0D5ADC"/>
<path d="M36.6667 3.03857H34V4.37191H36V6.3719H37.3333V3.70524C37.3333 3.33699 37.0348 3.03857 36.6667 3.03857Z" fill="#0D5ADC"/>
<path d="M36 22.3721V24.3721H34V25.7054H36.6667C37.0348 25.7054 37.3333 25.4069 37.3333 25.0387V22.3721H36Z" fill="#0D5ADC"/>
<path d="M4.00008 24.3721V22.3721H2.66675V25.0387C2.66675 25.4069 2.96525 25.7054 3.33341 25.7054H6.00008V24.3721H4.00008Z" fill="#0D5ADC"/>
<path d="M28 7.70532H12V9.03866H28V7.70532Z" fill="#0D5ADC"/>
<path d="M32 11.7053H8V13.0387H32V11.7053Z" fill="#0D5ADC"/>
<path d="M19.9999 23.0386C17.4226 23.0386 15.3333 25.1279 15.3333 27.7052C15.3362 30.2813 17.4238 32.369 19.9999 32.3719C22.5773 32.3719 24.6666 30.2826 24.6666 27.7052C24.6666 25.1279 22.5773 23.0386 19.9999 23.0386ZM19.9999 31.0386C18.159 31.0386 16.6666 29.5462 16.6666 27.7052C16.6688 25.8652 18.1599 24.3741 19.9999 24.3719C21.8408 24.3719 23.3333 25.8643 23.3333 27.7052C23.3333 29.5462 21.8408 31.0386 19.9999 31.0386Z" fill="#0D5ADC"/>
</svg>
