<svg width="15" height="15" viewBox="0 0 15 15" fill="none" xmlns="http://www.w3.org/2000/svg">
<g clip-path="url(#clip0_312_3418)">
<path d="M13.5901 3.35278L13.2589 2.36C13.1328 1.98189 12.7802 1.72783 12.3817 1.72783H9.59818V0.821571C9.59818 0.368614 9.22991 0 8.77706 0H6.22801C5.77528 0 5.40689 0.368614 5.40689 0.821571V1.72783H2.62346C2.22486 1.72783 1.87227 1.98189 1.74616 2.36L1.41496 3.35278C1.33955 3.5788 1.37777 3.82908 1.51704 4.02237C1.65632 4.21566 1.88165 4.33113 2.11992 4.33113H2.4661L3.22805 13.7532C3.2847 14.4523 3.87796 15 4.57891 15H10.5808C11.2816 15 11.875 14.4523 11.9315 13.7531L12.6935 4.33113H12.8851C13.1234 4.33113 13.3487 4.21566 13.488 4.02248C13.6273 3.82919 13.6655 3.5788 13.5901 3.35278ZM6.2858 0.878906H8.71927V1.72783H6.2858V0.878906ZM11.0555 13.6822C11.0356 13.9284 10.827 14.1211 10.5808 14.1211H4.57891C4.33263 14.1211 4.12412 13.9284 4.10421 13.6822L3.34787 4.33113H11.8117L11.0555 13.6822ZM2.3084 3.45222L2.57997 2.63809C2.58615 2.61932 2.60366 2.60674 2.62346 2.60674H12.3817C12.4015 2.60674 12.4189 2.61932 12.4252 2.63809L12.6968 3.45222H2.3084Z" fill="#A6A5A9"/>
<path d="M9.6539 13.6511C9.66169 13.6515 9.66935 13.6516 9.67713 13.6516C9.90934 13.6516 10.1034 13.4697 10.1156 13.2351L10.5282 5.31323C10.5408 5.07085 10.3545 4.86405 10.1122 4.85146C9.86928 4.83853 9.66317 5.02507 9.65047 5.26746L9.23791 13.1893C9.22532 13.4317 9.41152 13.6385 9.6539 13.6511Z" fill="#A6A5A9"/>
<path d="M4.90935 13.2363C4.92216 13.4705 5.11603 13.6518 5.34777 13.6518C5.35578 13.6518 5.36402 13.6516 5.37214 13.6511C5.61441 13.6379 5.80015 13.4308 5.78699 13.1884L5.35475 5.26659C5.34159 5.02421 5.13445 4.83847 4.89207 4.85174C4.6498 4.8649 4.46406 5.07204 4.47722 5.31443L4.90935 13.2363Z" fill="#A6A5A9"/>
<path d="M7.50732 13.6516C7.75005 13.6516 7.94678 13.4548 7.94678 13.2121V5.29028C7.94678 5.04755 7.75005 4.85083 7.50732 4.85083C7.2646 4.85083 7.06787 5.04755 7.06787 5.29028V13.2121C7.06787 13.4548 7.2646 13.6516 7.50732 13.6516Z" fill="#A6A5A9"/>
</g>
<defs>
<clipPath id="clip0_312_3418">
<rect width="15" height="15" fill="white"/>
</clipPath>
</defs>
</svg>
