<svg width="40" height="43" viewBox="0 0 40 43" fill="none" xmlns="http://www.w3.org/2000/svg">
<path d="M35.3846 13.8214H27.6923C26.8426 13.8214 26.1538 14.509 26.1538 15.3572C26.1538 16.2053 26.8426 16.8929 27.6923 16.8929H35.3846C36.2343 16.8929 36.9231 17.5805 36.9231 18.4286V38.3929C36.9231 39.2411 36.2343 39.9287 35.3846 39.9287H4.61539C3.76569 39.9287 3.0769 39.2411 3.0769 38.3929V18.4286C3.0769 17.5804 3.76569 16.8928 4.61539 16.8928H12.3077C13.1574 16.8928 13.8462 16.2053 13.8462 15.3571C13.8462 14.5089 13.1574 13.8214 12.3077 13.8214H4.61539C2.06638 13.8214 0 15.8841 0 18.4286V38.3929C0 40.9373 2.06638 43 4.61539 43H35.3846C37.9336 43 40 40.9373 40 38.3929V18.4286C40 15.8841 37.9336 13.8214 35.3846 13.8214Z" fill="#A6A5A9"/>
<path d="M28.7452 21.95C28.149 21.3752 27.2038 21.3752 26.6077 21.95L21.5384 27.007V1.53574C21.5384 0.687562 20.8497 0 20 0C19.1503 0 18.4615 0.687562 18.4615 1.53574V27.0071L13.3953 21.95C12.7841 21.3608 11.8102 21.3776 11.2199 21.9877C10.6441 22.5828 10.6441 23.5264 11.2199 24.1214L18.9122 31.8C19.5123 32.4004 20.4864 32.4017 21.0879 31.8027C21.0888 31.8018 21.0897 31.8009 21.0907 31.8L28.783 24.1214C29.3733 23.5114 29.3564 22.5392 28.7452 21.95Z" fill="#A6A5A9"/>
</svg>
