<svg width="120" height="128" viewBox="0 0 120 128" fill="none" xmlns="http://www.w3.org/2000/svg">
<path d="M49.2452 65.1779H37.0586C36.9342 65.1779 36.8721 65.2383 36.8099 65.3591C36.499 70.7352 35.442 76.4738 33.9497 81.1855C33.9497 81.2459 33.9497 81.3063 34.0119 81.3667C34.0741 81.4271 34.1363 81.4271 34.1985 81.4271H38.3643C38.4886 81.4271 38.5508 81.3667 38.5508 81.3063C39.7322 77.6819 40.6648 72.9702 41.0379 68.9834H45.0172V81.2459C45.0172 81.3667 45.1415 81.4875 45.2659 81.4875H49.2452C49.3696 81.4875 49.4939 81.3667 49.4939 81.2459V65.3591C49.4939 65.2383 49.3696 65.1779 49.2452 65.1779V65.1779ZM100.79 65.1779H96.8103C96.686 65.1779 96.5616 65.2987 96.5616 65.4195V77.6819C95.6912 77.9235 94.8207 78.0443 93.8259 78.0443C91.2144 78.0443 90.5927 77.2591 90.5927 73.8763V65.4195C90.5927 65.2987 90.4683 65.1779 90.344 65.1779H86.4268C86.3025 65.1779 86.1781 65.2987 86.1781 65.4195V74.2992C86.1781 79.8565 88.1056 81.9707 93.0176 81.9707C95.8155 81.9707 98.9865 81.2459 100.852 80.5814C100.914 80.521 100.976 80.4606 100.976 80.4002V65.4195C101.038 65.2383 100.914 65.1779 100.79 65.1779V65.1779ZM16.4781 65.1779H12.4366C12.3123 65.1779 12.2501 65.2383 12.2501 65.3591C11.6283 67.7753 10.3226 71.8829 8.58168 76.1718L4.5402 65.3591C4.47802 65.2987 4.41584 65.2383 4.35367 65.2383H0.250008C0.187831 65.2383 0.125655 65.2987 0.0634782 65.3591C0.00130154 65.4195 0.00130154 65.4799 0.0634782 65.5403L6.15679 81.7291C5.53502 82.9976 4.97543 84.0245 4.41584 84.991C3.98061 85.7159 3.60755 86.4408 3.23449 87.1657C3.17231 87.2261 3.17231 87.2865 3.23449 87.3469C3.29666 87.4073 3.35884 87.4677 3.42102 87.4677H7.83556C7.89774 87.4677 8.02209 87.4073 8.02209 87.3469C8.76821 85.9575 9.70086 84.0245 10.5713 82.0311C13.1828 76.1114 15.2346 70.554 16.789 65.4799C16.789 65.4195 16.789 65.3591 16.7268 65.2987C16.6025 65.1779 16.5403 65.1779 16.4781 65.1779V65.1779ZM30.9653 77.6819C30.9653 77.6215 30.9031 77.5611 30.8409 77.5611H30.6544C29.6596 77.9235 27.8564 78.1652 26.6129 78.1652C23.815 78.1652 22.5092 77.4403 22.5092 73.3327C22.5092 70.0104 22.9445 68.5002 26.6129 68.5002C27.6699 68.5002 28.6026 68.621 29.8461 68.9834C29.9704 68.9834 30.0326 68.9834 30.0948 68.8626C30.53 68.017 31.0896 66.9901 31.7114 65.7215V65.5403C31.7114 65.4799 31.6492 65.4195 31.587 65.4195C29.9704 64.9362 28.043 64.6342 26.302 64.6342C20.5196 64.6342 17.9082 67.2921 17.9082 73.2723C17.9082 79.3129 20.5196 82.0311 26.302 82.0311C27.7321 82.0311 30.6544 81.7291 32.0223 81.1855C32.1466 81.1251 32.2088 81.0042 32.1466 80.8834L30.9653 77.6819V77.6819ZM68.8308 65.1779H64.7894C64.665 65.1779 64.6028 65.2383 64.6028 65.3591C63.9811 67.8357 62.6754 71.8829 60.9344 76.1718L56.8929 65.3591C56.8308 65.2987 56.7686 65.2383 56.7064 65.2383H52.6027C52.5406 65.2383 52.4784 65.2987 52.4162 65.3591C52.354 65.4195 52.354 65.4799 52.4162 65.5403L58.5095 81.7291C57.8878 82.9976 57.3282 84.0245 56.7686 84.991C56.3333 85.7159 55.9603 86.4408 55.5872 87.2261C55.525 87.2865 55.525 87.3469 55.5872 87.4073C55.6494 87.4677 55.7116 87.5281 55.7737 87.5281H60.1883C60.2505 87.5281 60.3748 87.4677 60.3748 87.4073C61.1209 86.0179 62.0536 84.0849 62.9241 82.0915C65.4733 76.1718 67.5873 70.6144 69.1417 65.5403C69.1417 65.4799 69.1417 65.4195 69.0796 65.3591C68.9552 65.1779 68.893 65.1779 68.8308 65.1779V65.1779ZM83.7532 65.1779H72.0019C71.8775 65.1779 71.7531 65.2987 71.7531 65.4195V81.3063C71.7531 81.4271 71.8775 81.5479 72.0019 81.5479H75.9812C76.1055 81.5479 76.2299 81.4271 76.2299 81.3063V69.0439H82.3854C82.4475 69.0439 82.5719 68.9834 82.5719 68.923C83.0693 67.8357 83.5045 66.688 84.002 65.5403V65.3591C83.8776 65.1779 83.8154 65.1779 83.7532 65.1779" fill="#EF4058"/>
<path d="M21.2022 40.7742C15.482 40.7742 13.2436 43.1904 13.2436 49.2914C13.2436 55.5132 15.482 57.9294 21.2022 57.9294C26.9847 57.9294 29.223 55.5132 29.223 49.2914C29.223 43.13 26.9847 40.7742 21.2022 40.7742ZM21.2022 54.3655C18.5908 54.3655 17.7825 53.701 17.7825 49.3518C17.7825 44.7609 18.653 44.3381 21.2022 44.3381C23.8137 44.3381 24.6841 44.7609 24.6841 49.3518C24.6841 53.701 23.8758 54.3655 21.2022 54.3655ZM45.1402 53.701C45.1402 53.6406 45.0781 53.5802 45.0159 53.5802H44.8294C43.8345 53.9426 42.0314 54.1842 40.7879 54.1842C37.9899 54.1842 36.6842 53.4594 36.6842 49.3518C36.6842 46.0295 37.1195 44.5193 40.7879 44.5193C41.8449 44.5193 42.7775 44.6401 44.0211 45.0026C44.1454 45.0026 44.2076 45.0026 44.2698 44.8818C44.705 44.0361 45.2646 43.0092 45.8864 41.7407V41.5594C45.8864 41.499 45.8242 41.4386 45.762 41.4386C44.1454 40.9554 42.2179 40.6534 40.477 40.6534C34.6946 40.6534 32.0832 43.3112 32.0832 49.2914C32.0832 55.332 34.6946 58.0502 40.477 58.0502C41.9071 58.0502 44.8294 57.7482 46.1973 57.2045C46.3216 57.1441 46.3838 57.0233 46.3216 56.9025L45.1402 53.701V53.701ZM12.0001 41.197H0.248707C0.124353 41.197 0 41.3178 0 41.4386V57.3254C0 57.4462 0.124353 57.567 0.248707 57.567H4.22801C4.35237 57.567 4.47672 57.4462 4.47672 57.3254V45.0026H10.57C10.6322 45.0026 10.7566 44.9422 10.7566 44.8818C11.254 43.7945 11.6892 42.6467 12.1866 41.499V41.3178C12.1244 41.2574 12.0623 41.197 12.0001 41.197Z" fill="#1466AC"/>
<path d="M119.378 79.7961V79.5545C119.378 79.4337 119.378 79.2525 119.44 79.1317C119.627 76.8967 119.751 74.1784 119.876 71.0373V70.7957C119.938 68.6815 120 66.386 120 64.0302C120 61.6744 119.938 59.379 119.876 57.2648V57.0231C119.751 53.9424 119.627 51.1638 119.44 48.9287C119.44 48.8079 119.44 48.6267 119.378 48.5059V48.2643C119.378 48.0227 119.316 47.8414 119.316 47.5998V47.3582C119.129 45.0024 119.005 43.5526 118.943 43.4318C118.943 43.1902 118.881 42.9486 118.881 42.7673V42.5861C118.819 42.1633 118.756 41.8009 118.632 41.378C118.632 41.3176 118.632 41.2572 118.57 41.1968C117.513 36.3039 114.715 30.9278 111.233 26.8806C109.865 25.3101 108.435 23.9207 106.943 22.8334C106.818 22.7126 105.078 21.5045 102.342 19.6319C99.1707 17.5177 94.6318 14.5578 89.4712 11.6583C80.269 6.40302 72.1239 2.71826 71.0047 2.29542C70.9425 2.29542 70.9425 2.23502 70.9425 2.23502C68.5176 1.20812 65.5953 0.483247 62.4243 0.181218C61.8026 0.120812 61.1808 0.0604059 60.559 0.0604059C59.9373 0 59.3777 0 58.8181 0H57.9476C53.7196 0.120812 49.8025 0.845682 46.6937 2.23502C46.2584 2.41623 37.9889 6.10099 28.6003 11.4771L28.2272 11.6583C18.5898 17.1553 11.0664 22.5918 10.7556 22.8334C8.39284 24.5248 6.27884 26.6994 4.35136 29.4781C3.91613 30.0821 3.91613 31.6527 5.78143 31.6527H10.569C12.6209 31.6527 13.1183 30.4446 15.4188 28.8136C17.968 27.0014 23.0044 23.3771 32.2065 18.0614C38.8594 14.2558 45.0771 11.2355 48.1237 9.84615C48.1859 9.84615 48.2481 9.78575 48.3102 9.78575C48.3102 9.78575 48.3724 9.78575 48.3724 9.72534C48.3724 9.72534 48.4346 9.72534 48.4346 9.66494C48.4968 9.66494 48.5589 9.60453 48.5589 9.60453C48.6211 9.60453 48.6833 9.54413 48.7455 9.54413C49.4916 9.18169 49.989 9.00047 49.989 9.00047C52.103 8.09438 55.0875 7.49033 58.2585 7.42992H59.502C60.4347 7.42992 61.3673 7.49033 62.2378 7.61114C64.1653 7.85276 65.9062 8.2152 67.3363 8.81926C67.4606 8.87966 67.6472 8.94007 67.7715 9.00047C67.7715 9.00047 67.8337 9.06088 68.0202 9.12128C69.4503 9.72534 77.1602 13.2893 85.554 18.0614C90.5282 20.9004 94.9427 23.7395 97.9894 25.7933C100.663 27.6055 102.28 28.7532 102.342 28.8136C103.523 29.6593 104.704 30.8674 105.824 32.1963C108.622 35.6999 110.922 40.4719 111.295 44.1567C111.295 44.2171 111.482 45.6668 111.668 48.1435C111.668 48.3247 111.668 48.4455 111.73 48.6267V48.9891C111.73 49.2308 111.793 49.412 111.793 49.6536V49.8952C111.793 50.016 111.793 50.1973 111.855 50.3181C111.855 50.6201 111.917 50.9221 111.917 51.2242C111.917 51.4054 111.917 51.5866 111.979 51.7678V51.8886C111.979 52.1303 111.979 52.3115 112.041 52.5531V53.0363C112.228 56.1774 112.352 59.9226 112.352 63.849C112.352 67.7754 112.228 71.5205 112.041 74.6616V75.1449C112.041 75.3865 112.041 75.5677 111.979 75.8093V75.9302C111.979 76.1114 111.979 76.2926 111.917 76.4738C111.917 76.7758 111.855 77.0779 111.855 77.3799C111.855 77.5611 111.855 77.6819 111.793 77.8027V78.0444C111.793 78.286 111.73 78.4672 111.73 78.7088V79.0713C111.73 79.2525 111.73 79.4337 111.668 79.5545C111.482 82.0312 111.295 83.5413 111.295 83.5413C110.922 87.2261 108.622 91.9981 105.824 95.5017C104.704 96.891 103.523 98.0387 102.342 98.8844C102.28 98.8844 100.663 100.093 97.9894 101.905C94.9427 103.958 90.466 106.798 85.554 109.637C77.1602 114.469 69.3881 117.973 68.0202 118.577L67.7715 118.698C67.6472 118.758 67.4606 118.818 67.3363 118.879C65.9062 119.422 64.1653 119.845 62.2378 120.087C61.3673 120.208 60.4347 120.268 59.502 120.268H58.2585C55.0875 120.208 52.103 119.664 49.989 118.698C49.989 118.698 49.5538 118.516 48.7455 118.154C48.6833 118.093 48.559 118.093 48.4968 118.033C48.4346 117.973 48.3724 117.973 48.3102 117.912C48.2481 117.912 48.2481 117.852 48.1859 117.852C48.1237 117.852 48.0615 117.791 47.9994 117.791C47.9372 117.731 47.875 117.731 47.7507 117.671H47.6885C44.5175 116.462 38.5485 113.563 32.2065 109.939C22.9422 104.683 17.968 100.999 15.4188 99.1864C13.1183 97.5555 12.6209 96.3473 10.569 96.3473H5.78143C3.91613 96.3473 3.91613 97.9179 4.35136 98.522C6.27884 101.301 8.39284 103.475 10.7556 105.167C11.0664 105.408 18.652 110.845 28.2272 116.342C28.7246 116.644 29.222 116.946 29.7816 117.187C38.6729 122.141 46.3206 125.523 46.7558 125.765C49.8025 127.094 53.7818 127.879 58.0098 128H58.8803C59.4399 128 59.9995 128 60.559 127.94C61.1808 127.94 61.8026 127.879 62.4243 127.819C65.5953 127.517 68.5798 126.792 70.9425 125.765C70.9425 125.765 71.0047 125.765 71.0047 125.705C72.0617 125.221 80.269 121.537 89.409 116.342C94.5697 113.382 99.1085 110.482 102.28 108.368C105.015 106.496 106.756 105.287 106.881 105.167C108.373 104.079 109.803 102.69 111.171 101.119C114.653 97.0722 117.451 91.6961 118.508 86.8032C118.508 86.7428 118.508 86.6824 118.57 86.622C118.632 86.1992 118.756 85.7763 118.819 85.4139V85.2327C118.881 84.991 118.881 84.7494 118.881 84.5682C118.881 84.4474 119.067 82.9976 119.254 80.6418V80.4002C119.378 80.219 119.378 80.0378 119.378 79.7961" fill="url(#paint0_linear_1:1872)"/>
<defs>
<linearGradient id="paint0_linear_1:1872" x1="62.055" y1="0" x2="62.055" y2="128.111" gradientUnits="userSpaceOnUse">
<stop offset="0.398" stop-color="#1466AC"/>
<stop offset="0.659" stop-color="#EF4058"/>
</linearGradient>
</defs>
</svg>
