<svg width="24" height="26" viewBox="0 0 24 26" fill="none" xmlns="http://www.w3.org/2000/svg">
<path d="M9.84903 13.2392H7.41172C7.38685 13.2392 7.37441 13.2515 7.36198 13.276C7.2998 14.368 7.0884 15.5337 6.78995 16.4907C6.78995 16.503 6.78996 16.5153 6.80239 16.5276C6.81483 16.5398 6.82726 16.5398 6.8397 16.5398H7.67286C7.69773 16.5398 7.71016 16.5276 7.71016 16.5153C7.94643 15.7791 8.13296 14.822 8.20757 14.0122H9.00343V16.503C9.00343 16.5276 9.0283 16.5521 9.05317 16.5521H9.84903C9.8739 16.5521 9.89877 16.5276 9.89877 16.503V13.276C9.89877 13.2515 9.8739 13.2392 9.84903 13.2392ZM20.1579 13.2392H19.362C19.3371 13.2392 19.3123 13.2637 19.3123 13.2883V15.7791C19.1382 15.8282 18.9641 15.8527 18.7651 15.8527C18.2428 15.8527 18.1185 15.6932 18.1185 15.0061V13.2883C18.1185 13.2637 18.0936 13.2392 18.0687 13.2392H17.2853C17.2604 13.2392 17.2356 13.2637 17.2356 13.2883V15.092C17.2356 16.2208 17.6211 16.6503 18.6034 16.6503C19.163 16.6503 19.7972 16.503 20.1703 16.368C20.1827 16.3558 20.1952 16.3435 20.1952 16.3312V13.2883C20.2076 13.2515 20.1827 13.2392 20.1579 13.2392ZM3.29565 13.2392H2.48736C2.46249 13.2392 2.45005 13.2515 2.45005 13.276C2.3257 13.7668 2.06456 14.6012 1.71637 15.4723L0.908082 13.276C0.895647 13.2637 0.883212 13.2515 0.870777 13.2515H0.0500502C0.0376149 13.2515 0.0251797 13.2637 0.0127444 13.276C0.000309157 13.2883 0.000309157 13.3005 0.0127444 13.3128L1.2314 16.6012C1.10705 16.8588 0.995129 17.0674 0.883212 17.2637C0.796165 17.411 0.721554 17.5582 0.646942 17.7055C0.634507 17.7177 0.634507 17.73 0.646942 17.7423C0.659377 17.7545 0.671813 17.7668 0.684248 17.7668H1.56715C1.57959 17.7668 1.60446 17.7545 1.60446 17.7423C1.75368 17.4601 1.94021 17.0674 2.1143 16.6625C2.63658 15.4601 3.04695 14.3312 3.35783 13.3005C3.35783 13.2883 3.35783 13.276 3.34539 13.2637C3.32052 13.2392 3.30809 13.2392 3.29565 13.2392ZM6.19306 15.7791C6.19306 15.7668 6.18063 15.7545 6.16819 15.7545H6.13089C5.93192 15.8282 5.5713 15.8772 5.3226 15.8772C4.76301 15.8772 4.50187 15.73 4.50187 14.8956C4.50187 14.2208 4.58892 13.914 5.3226 13.914C5.53399 13.914 5.72052 13.9386 5.96923 14.0122C5.9941 14.0122 6.00653 14.0122 6.01897 13.9877C6.10602 13.8159 6.21793 13.6073 6.34229 13.3496V13.3128C6.34229 13.3005 6.32985 13.2883 6.31742 13.2883C5.9941 13.1901 5.60861 13.1288 5.26042 13.1288C4.10394 13.1288 3.58166 13.6686 3.58166 14.8834C3.58166 16.1104 4.10394 16.6625 5.26042 16.6625C5.54643 16.6625 6.13089 16.6012 6.40446 16.4907C6.42933 16.4785 6.44177 16.4539 6.42933 16.4294L6.19306 15.7791ZM13.7661 13.2392H12.9578C12.933 13.2392 12.9205 13.2515 12.9205 13.276C12.7962 13.7791 12.535 14.6012 12.1869 15.4723L11.3786 13.276C11.3661 13.2637 11.3537 13.2515 11.3413 13.2515H10.5205C10.5081 13.2515 10.4957 13.2637 10.4832 13.276C10.4708 13.2883 10.4708 13.3005 10.4832 13.3128L11.7019 16.6012C11.5775 16.8588 11.4656 17.0674 11.3537 17.2637C11.2666 17.411 11.192 17.5582 11.1174 17.7177C11.105 17.73 11.105 17.7423 11.1174 17.7545C11.1299 17.7668 11.1423 17.7791 11.1547 17.7791H12.0376C12.0501 17.7791 12.0749 17.7668 12.0749 17.7545C12.2242 17.4723 12.4107 17.0797 12.5848 16.6748C13.0946 15.4723 13.5174 14.3435 13.8283 13.3128C13.8283 13.3005 13.8283 13.2883 13.8159 13.276C13.791 13.2392 13.7786 13.2392 13.7661 13.2392ZM16.7506 13.2392H14.4003C14.3755 13.2392 14.3506 13.2637 14.3506 13.2883V16.5153C14.3506 16.5398 14.3755 16.5644 14.4003 16.5644H15.1962C15.2211 16.5644 15.2459 16.5398 15.2459 16.5153V14.0245H16.477C16.4895 14.0245 16.5143 14.0122 16.5143 13.9999C16.6138 13.7791 16.7008 13.5459 16.8003 13.3128V13.276C16.7755 13.2392 16.763 13.2392 16.7506 13.2392Z" fill="#EF4058"/>
<path d="M4.24042 8.28237C3.09638 8.28237 2.64871 8.77316 2.64871 10.0124C2.64871 11.2762 3.09638 11.767 4.24042 11.767C5.3969 11.767 5.84457 11.2762 5.84457 10.0124C5.84457 8.76089 5.3969 8.28237 4.24042 8.28237ZM4.24042 11.0431C3.71814 11.0431 3.55648 10.9081 3.55648 10.0247C3.55648 9.09218 3.73058 9.00629 4.24042 9.00629C4.7627 9.00629 4.93679 9.09218 4.93679 10.0247C4.93679 10.9081 4.77514 11.0431 4.24042 11.0431ZM9.02799 10.9081C9.02799 10.8959 9.01556 10.8836 9.00312 10.8836H8.96582C8.76685 10.9572 8.40623 11.0063 8.15752 11.0063C7.59794 11.0063 7.3368 10.8591 7.3368 10.0247C7.3368 9.34985 7.42384 9.0431 8.15752 9.0431C8.36892 9.0431 8.55545 9.06764 8.80416 9.14126C8.82903 9.14126 8.84146 9.14126 8.8539 9.11672C8.94094 8.94494 9.05286 8.73635 9.17722 8.47869V8.44188C9.17722 8.42961 9.16478 8.41734 9.15234 8.41734C8.82903 8.31918 8.44353 8.25783 8.09535 8.25783C6.93887 8.25783 6.41659 8.7977 6.41659 10.0124C6.41659 11.2394 6.93887 11.7916 8.09535 11.7916C8.38136 11.7916 8.96582 11.7302 9.23939 11.6198C9.26426 11.6075 9.2767 11.583 9.26426 11.5584L9.02799 10.9081ZM2.4 8.36826H0.049741C0.0248705 8.36826 0 8.3928 0 8.41734V11.6443C0 11.6689 0.0248705 11.6934 0.049741 11.6934H0.845597C0.870468 11.6934 0.895338 11.6689 0.895338 11.6443V9.14126H2.11399C2.12643 9.14126 2.1513 9.12899 2.1513 9.11672C2.25078 8.89586 2.33783 8.66273 2.43731 8.42961V8.3928C2.42487 8.38053 2.41244 8.36826 2.4 8.36826Z" fill="#1466AC"/>
<path d="M23.8754 16.2086V16.1595C23.8754 16.135 23.8754 16.0982 23.8879 16.0736C23.9252 15.6196 23.95 15.0675 23.9749 14.4294V14.3804C23.9873 13.9509 23.9998 13.4847 23.9998 13.0061C23.9998 12.5276 23.9873 12.0613 23.9749 11.6319V11.5828C23.95 10.9571 23.9252 10.3926 23.8879 9.93865C23.8879 9.91411 23.8879 9.8773 23.8754 9.85276V9.80368C23.8754 9.7546 23.863 9.71779 23.863 9.66871V9.61963C23.8257 9.1411 23.8008 8.84663 23.7884 8.82209C23.7884 8.77301 23.7759 8.72393 23.7759 8.68712V8.65031C23.7635 8.56442 23.7511 8.4908 23.7262 8.40491C23.7262 8.39264 23.7262 8.38037 23.7138 8.3681C23.5024 7.37423 22.9428 6.28221 22.2464 5.46012C21.9728 5.1411 21.6868 4.8589 21.3884 4.63804C21.3635 4.6135 21.0153 4.3681 20.4682 3.98773C19.834 3.55828 18.9262 2.95706 17.8941 2.3681C16.0537 1.30061 14.4246 0.552147 14.2008 0.466258C14.1884 0.466258 14.1884 0.453988 14.1884 0.453988C13.7034 0.245399 13.1189 0.0981595 12.4847 0.0368098C12.3604 0.0245399 12.236 0.0122699 12.1117 0.0122699C11.9873 0 11.8754 0 11.7635 0H11.5894C10.7438 0.0245399 9.96039 0.171779 9.33862 0.453988C9.25158 0.490798 7.59769 1.23926 5.71997 2.33129L5.64536 2.3681C3.7179 3.48466 2.21323 4.58896 2.15105 4.63804C1.67851 4.9816 1.25572 5.42331 0.870224 5.98773C0.783177 6.11043 0.783177 6.42945 1.15623 6.42945H2.11375C2.52411 6.42945 2.62359 6.18405 3.0837 5.85276C3.59354 5.48466 4.6008 4.74847 6.44121 3.66871C7.77178 2.89571 9.01531 2.28221 9.62464 2C9.63707 2 9.64951 1.98773 9.66194 1.98773C9.66194 1.98773 9.67438 1.98773 9.67438 1.97546C9.67438 1.97546 9.68681 1.97546 9.68681 1.96319C9.69925 1.96319 9.71168 1.95092 9.71168 1.95092C9.72412 1.95092 9.73655 1.93865 9.74899 1.93865C9.89821 1.86503 9.99769 1.82822 9.99769 1.82822C10.4205 1.64417 11.0174 1.52147 11.6516 1.5092H11.9003C12.0868 1.5092 12.2733 1.52147 12.4474 1.54601C12.8329 1.59509 13.1811 1.66871 13.4671 1.79141C13.492 1.80368 13.5293 1.81595 13.5542 1.82822C13.5542 1.82822 13.5666 1.84049 13.6039 1.85276C13.8899 1.97546 15.4319 2.69939 17.1107 3.66871C18.1055 4.2454 18.9884 4.82209 19.5977 5.23926C20.1324 5.60736 20.4557 5.84049 20.4682 5.85276C20.7044 6.02454 20.9407 6.26994 21.1645 6.53988C21.7241 7.25153 22.1842 8.22086 22.2588 8.96933C22.2588 8.9816 22.2962 9.27607 22.3335 9.77914C22.3335 9.81595 22.3335 9.84049 22.3459 9.8773V9.95092C22.3459 10 22.3583 10.0368 22.3583 10.0859V10.135C22.3583 10.1595 22.3583 10.1963 22.3708 10.2209C22.3708 10.2822 22.3832 10.3436 22.3832 10.4049C22.3832 10.4417 22.3832 10.4785 22.3956 10.5153V10.5399C22.3956 10.589 22.3956 10.6258 22.4081 10.6748V10.773C22.4454 11.411 22.4702 12.1718 22.4702 12.9693C22.4702 13.7669 22.4454 14.5276 22.4081 15.1656V15.2638C22.4081 15.3129 22.4081 15.3497 22.3956 15.3988V15.4233C22.3956 15.4601 22.3956 15.4969 22.3832 15.5337C22.3832 15.5951 22.3708 15.6564 22.3708 15.7178C22.3708 15.7546 22.3708 15.7791 22.3583 15.8037V15.8528C22.3583 15.9018 22.3459 15.9387 22.3459 15.9877V16.0613C22.3459 16.0982 22.3459 16.135 22.3335 16.1595C22.2962 16.6626 22.2588 16.9693 22.2588 16.9693C22.1842 17.7178 21.7241 18.6871 21.1645 19.3988C20.9407 19.681 20.7044 19.9141 20.4682 20.0859C20.4557 20.0859 20.1324 20.3313 19.5977 20.6994C18.9884 21.1166 18.093 21.6933 17.1107 22.2699C15.4319 23.2515 13.8775 23.9632 13.6039 24.0859L13.5542 24.1104C13.5293 24.1227 13.492 24.135 13.4671 24.1472C13.1811 24.2577 12.8329 24.3436 12.4474 24.3926C12.2733 24.4172 12.0868 24.4294 11.9003 24.4294H11.6516C11.0174 24.4172 10.4205 24.3067 9.99769 24.1104C9.99769 24.1104 9.91065 24.0736 9.74899 24C9.73655 23.9877 9.71168 23.9877 9.69925 23.9755C9.68681 23.9632 9.67438 23.9632 9.66194 23.9509C9.64951 23.9509 9.64951 23.9387 9.63707 23.9387C9.62464 23.9387 9.6122 23.9264 9.59976 23.9264C9.58733 23.9141 9.5749 23.9141 9.55002 23.9018H9.53759C8.90339 23.6564 7.70961 23.0675 6.44121 22.3313C4.58836 21.2638 3.59354 20.5153 3.0837 20.1472C2.62359 19.816 2.52411 19.5706 2.11375 19.5706H1.15623C0.783177 19.5706 0.783177 19.8896 0.870224 20.0123C1.25572 20.5767 1.67851 21.0184 2.15105 21.362C2.21323 21.411 3.73033 22.5153 5.64536 23.6319C5.74484 23.6933 5.84432 23.7546 5.95624 23.8037C7.73448 24.8098 9.26401 25.4969 9.35106 25.546C9.96039 25.816 10.7562 25.9755 11.6018 26H11.7759C11.8879 26 11.9998 26 12.1117 25.9877C12.236 25.9877 12.3604 25.9755 12.4847 25.9632C13.1189 25.9018 13.7158 25.7546 14.1884 25.546C14.1884 25.546 14.2008 25.546 14.2008 25.5337C14.4122 25.4356 16.0537 24.6871 17.8816 23.6319C18.9138 23.0307 19.8215 22.4417 20.4557 22.0123C21.0029 21.6319 21.3511 21.3865 21.3759 21.362C21.6744 21.1411 21.9604 20.8589 22.234 20.5399C22.9303 19.7178 23.4899 18.6258 23.7013 17.6319C23.7013 17.6196 23.7013 17.6074 23.7138 17.5951C23.7262 17.5092 23.7511 17.4233 23.7635 17.3497V17.3129C23.7759 17.2638 23.7759 17.2147 23.7759 17.1779C23.7759 17.1534 23.8132 16.8589 23.8506 16.3804V16.3313C23.8754 16.2945 23.8754 16.2577 23.8754 16.2086Z" fill="url(#paint0_linear_15_88)"/>
<defs>
<linearGradient id="paint0_linear_15_88" x1="12.4109" y1="0" x2="12.4109" y2="26.0225" gradientUnits="userSpaceOnUse">
<stop offset="0.398" stop-color="#1466AC"/>
<stop offset="0.659" stop-color="#EF4058"/>
</linearGradient>
</defs>
</svg>
