<svg width="145" height="104" viewBox="0 0 145 104" fill="none" xmlns="http://www.w3.org/2000/svg">
<path d="M132.826 56.1316L118.98 61.2099C118.486 54.1342 117.642 47.2118 116.467 40.5827L141.54 32.2273C143.642 31.5267 145 29.6327 145 27.4019C145 25.171 143.642 23.2767 141.54 22.5764L75.0003 0.403241C73.3877 -0.134414 71.6115 -0.134414 69.9995 0.403241L3.46047 22.5764C1.35824 23.277 0 25.171 0 27.4021C0 29.6332 1.35824 31.5273 3.46047 32.2276L28.5291 40.5815C27.8967 44.1525 27.3524 47.8678 26.9092 51.648C26.7718 52.822 27.6044 53.8859 28.7692 54.0246C28.8539 54.0346 28.938 54.0395 29.0213 54.0395C30.083 54.0395 31.0003 53.2387 31.1278 52.15C31.5361 48.6666 32.0326 45.2418 32.6052 41.9399L39.3594 44.1907V49.5145C35.9612 50.4554 33.4568 53.594 33.4568 57.3128C33.4568 59.555 34.3673 61.5863 35.8346 63.0526C34.759 67.0157 33.9292 71.6602 33.3486 76.9532C31.8998 76.1184 30.8199 75.399 30.098 74.8839C29.8851 74.732 29.7593 74.4812 29.7613 74.2127C29.7922 69.9856 29.959 65.6924 30.2575 61.4519C30.3405 60.2727 29.4591 59.2491 28.2889 59.1654C27.1216 59.0833 26.1029 59.9699 26.0199 61.1491C25.7155 65.4795 25.545 69.864 25.5133 74.1807C25.5008 75.8479 26.2974 77.4166 27.6432 78.3772C28.7075 79.1366 30.462 80.2904 32.9156 81.5963C32.5554 86.2308 32.3631 91.2949 32.3404 96.7716C32.3336 98.4051 33.4263 99.8312 34.9983 100.24C36.3897 100.601 38.6446 101.032 41.4834 101.032C44.3219 101.032 46.5768 100.601 47.9685 100.239C49.5403 99.8309 50.6329 98.4048 50.6261 96.7716C50.6139 93.7851 50.5502 90.9236 50.4372 88.1851C53.3086 88.9137 56.2913 89.529 59.3479 90.0212C59.4286 91.703 59.79 93.4789 60.4181 95.218C61.4153 97.9782 62.9851 100.376 64.8395 101.969C66.3923 103.303 68.0875 104 69.6916 104C70.2495 104 70.7953 103.911 71.3212 103.74C71.3821 103.723 71.4427 103.704 71.503 103.682L104.333 91.6413C104.333 91.6413 104.333 91.6413 104.333 91.6411L104.339 91.6388C105.629 91.1673 106.749 91.171 107.763 91.6499C110.077 92.7426 111.46 96.0351 111.948 97.4006C112.269 98.2973 112.917 99.0136 113.774 99.4179C114.251 99.6434 114.761 99.7567 115.273 99.7567C115.682 99.7567 116.092 99.6845 116.488 99.5392L126.235 95.964C127.198 95.611 127.962 94.8562 128.331 93.8927C128.698 92.9364 128.638 91.8691 128.166 90.9644C126.799 88.3449 124.664 86.3892 121.906 85.1952L125.3 83.9507C126.402 83.5463 126.97 82.318 126.569 81.2073C126.168 80.0963 124.949 79.5233 123.846 79.9279L118.034 82.0597C118.341 79.795 118.049 77.1361 117.074 74.4375C116.134 71.8354 114.685 69.5567 112.968 67.9691L134.278 60.1534C135.542 59.6888 138.366 61.761 139.918 66.0591C140.657 68.105 140.92 70.2413 140.64 71.9202C140.434 73.153 139.958 74.0189 139.365 74.2363L132.718 76.6741C131.616 77.0784 131.047 78.3067 131.448 79.4174C131.849 80.5278 133.067 81.1009 134.171 80.6968L140.818 78.259C142.898 77.4962 144.36 75.4449 144.83 72.6305C145.234 70.2088 144.907 67.355 143.911 64.5948C141.67 58.3918 136.802 54.6739 132.826 56.1316ZM41.4834 53.5052C43.5666 53.5052 45.2616 55.2132 45.2616 57.3125C45.2616 59.412 43.5669 61.12 41.4834 61.12C39.3999 61.12 37.7049 59.412 37.7049 57.3125C37.7049 55.2132 39.3999 53.5052 41.4834 53.5052ZM41.4834 96.7514C39.3687 96.7514 37.648 96.4614 36.5916 96.2234C36.6907 80.6962 38.2223 70.961 39.6706 65.1901C40.2537 65.3262 40.8601 65.4007 41.4834 65.4007C42.107 65.4007 42.7131 65.3262 43.2962 65.1901C44.7425 70.9539 46.2755 80.6905 46.3752 96.2234C45.3183 96.4617 43.5975 96.7514 41.4834 96.7514ZM47.1316 63.0526C48.5989 61.5863 49.5094 59.5547 49.5094 57.3128C49.5094 53.594 47.005 50.4554 43.6071 49.5145V45.6065L69.9989 54.4013C70.8055 54.6701 71.6522 54.8046 72.4996 54.8046C73.3464 54.8046 74.1937 54.6701 74.9997 54.4013L92.2055 48.6678C93.3193 48.2968 93.9234 47.0862 93.5555 45.9635C93.187 44.8414 91.986 44.2315 90.8718 44.6034L73.6658 50.3369C72.9136 50.5878 72.085 50.5878 71.3328 50.3369L46.3038 41.9959L66.0244 28.8456C66.1125 28.8913 66.1994 28.9375 66.2909 28.9806C67.8681 29.7237 69.9479 30.1007 72.4721 30.1007C74.9963 30.1007 77.0759 29.724 78.6533 28.9806C80.8538 27.9438 82.0653 26.1722 82.0653 23.9919C82.0653 19.9064 77.8516 16.7061 72.4721 16.7061C67.0927 16.7061 62.8789 19.9064 62.8789 23.9919C62.8789 24.5723 62.9675 25.1231 63.1352 25.6394L41.171 40.2856L4.79407 28.1635C4.31914 28.0051 4.24806 27.6185 4.24806 27.4021C4.24806 27.1858 4.31914 26.7991 4.79407 26.6407L71.3333 4.46733C72.0855 4.21648 72.9142 4.21648 73.6664 4.46733L140.206 26.6407C140.681 26.7991 140.752 27.1858 140.752 27.4021C140.752 27.6185 140.681 28.0051 140.206 28.1635L99.8205 41.6212C98.7067 41.9922 98.1026 43.203 98.4705 44.3254C98.8389 45.4475 100.041 46.0571 101.154 45.6855L112.395 41.9397C113.541 48.5565 114.376 55.691 114.828 62.7333C114.828 62.7333 96.3425 69.513 96.3408 69.5136C96.3402 69.5139 96.34 69.5142 96.3394 69.5142L63.5107 81.5543C63.5076 81.5555 63.5047 81.5569 63.5016 81.558C61.7939 82.1882 60.5051 83.689 59.8404 85.7665C56.5136 85.2249 53.2822 84.532 50.2001 83.7018C49.6685 75.534 48.6431 68.6206 47.1316 63.0526ZM67.1269 23.9919C67.1269 22.5732 69.4127 20.9868 72.4721 20.9868C75.5316 20.9868 77.8173 22.5735 77.8173 23.9919C77.8173 25.2478 75.0464 25.82 72.4721 25.82C69.8978 25.82 67.1269 25.2478 67.1269 23.9919ZM100.248 74.484C101.534 75.5888 102.695 77.3958 103.434 79.4417C104.173 81.4875 104.436 83.6239 104.156 85.3028C103.95 86.5353 103.473 87.4012 102.881 87.6186L75.5766 97.6329C75.8791 95.3051 75.5358 92.6202 74.5958 90.0184C73.6559 87.4166 72.2065 85.1376 70.4902 83.55L97.7942 73.5357C98.3855 73.3186 99.304 73.673 100.248 74.484ZM64.4101 93.7543C63.6713 91.7084 63.4079 89.5721 63.6883 87.8932C63.8939 86.6606 64.3705 85.7954 64.963 85.5773C64.9632 85.5773 64.9635 85.5773 64.9635 85.577L64.9649 85.5765C65.0796 85.5348 65.2062 85.514 65.3427 85.514C65.9131 85.514 66.6571 85.871 67.4178 86.5248C68.7035 87.6295 69.8646 89.4365 70.6035 91.4824C71.3424 93.5283 71.6058 95.6646 71.3254 97.3435C71.1195 98.5764 70.6429 99.4422 70.0499 99.6597C69.458 99.8771 68.5398 99.5227 67.5956 98.7116C66.3102 97.6072 65.149 95.8002 64.4101 93.7543ZM123.983 92.2352L115.692 95.2765C114.953 93.4056 113.62 90.8029 111.485 89.0187L113.75 88.1877C114.906 88.0721 121.015 87.6983 123.983 92.2352ZM109.897 70.9451C111.183 72.0498 112.345 73.8568 113.084 75.9027C114.635 80.1993 113.793 83.6142 112.531 84.0794L108.406 85.5922C108.709 83.2643 108.366 80.5795 107.426 77.9777C106.486 75.3759 105.037 73.0965 103.321 71.509L107.443 69.9967C108.037 69.7799 108.954 70.134 109.897 70.9451Z" fill="#5586D9" fill-opacity="0.6"/>
</svg>
