<svg width="28" height="23" viewBox="0 0 28 23" fill="none" xmlns="http://www.w3.org/2000/svg">
<path d="M14.1064 21.1967C14.0705 21.2172 14.0361 21.2367 14.0033 21.2553C13.9699 21.2362 13.9349 21.2161 13.8984 21.195C13.5248 20.9793 12.9886 20.6618 12.3441 20.2573C11.0531 19.4471 9.33731 18.2943 7.62656 16.919C5.91065 15.5396 4.23058 13.9608 2.98741 12.3038C1.73518 10.6347 1 8.98481 1 7.44252C1 3.90619 3.94019 1.00022 7.61602 1.00022V1.00025L7.62364 1.0002C9.86746 0.983096 11.9555 2.08618 13.1671 3.90989L13.9952 5.15631L14.83 3.91438C16.0516 2.09698 18.1368 0.995318 20.3804 1.00022C24.0497 1.01829 26.9809 3.91422 27 7.44482C26.9993 9.01672 26.2615 10.6804 25.0118 12.3511C23.7694 14.0119 22.0904 15.5866 20.3753 16.9586C18.6654 18.3265 16.9504 19.4688 15.6599 20.2702C15.0157 20.6703 14.4798 20.9839 14.1064 21.1967Z" stroke="#A6A5A9" stroke-width="2"/>
</svg>
