<svg width="95" height="82" viewBox="0 0 95 82" fill="none" xmlns="http://www.w3.org/2000/svg">
<path d="M21.5435 31.664H18.2788V34.9287H21.5435V31.664Z" fill="#99B6E8" fill-opacity="0.8"/>
<path d="M31.338 31.664H28.0732V34.9287H31.338V31.664Z" fill="#99B6E8" fill-opacity="0.8"/>
<path d="M67.2496 31.664H63.9849V34.9287H67.2496V31.664Z" fill="#99B6E8" fill-opacity="0.8"/>
<path d="M77.044 31.664H73.7793V34.9287H77.044V31.664Z" fill="#99B6E8" fill-opacity="0.8"/>
<path d="M88.4869 52.6713C89.8614 51.8821 91.0222 50.7687 91.8681 49.4282C92.7139 48.0877 93.2192 46.5607 93.3399 44.9803C93.4606 43.3998 93.1931 41.8138 92.5606 40.3604C91.9282 38.907 90.9499 37.6303 89.7111 36.6415C89.9637 35.9395 90.0961 35.2001 90.1029 34.4541C90.1018 33.0074 89.6203 31.602 88.7339 30.4586C87.8476 29.3152 86.6066 28.4985 85.2058 28.1368V11.6826L88.4705 10.6052V18.1304H91.7353V8.33624C91.7328 7.99484 91.6248 7.66256 91.426 7.38494C91.2273 7.10732 90.9476 6.89794 90.6253 6.78549L71.0369 0.25603C70.698 0.141585 70.331 0.141585 69.9921 0.25603L50.4038 6.78549C50.0772 6.89284 49.7928 7.10055 49.5912 7.37901C49.3896 7.65747 49.2811 7.99247 49.2811 8.33624C49.2811 8.68002 49.3896 9.01501 49.5912 9.29348C49.7928 9.57194 50.0772 9.77965 50.4038 9.88699L55.8232 11.6826V28.1368C54.4224 28.4985 53.1814 29.3152 52.2951 30.4586C51.4087 31.602 50.9272 33.0074 50.9261 34.4541C50.9329 35.2001 51.0654 35.9395 51.3179 36.6415C50.0791 37.6303 49.1009 38.907 48.4684 40.3604C47.8359 41.8138 47.5684 43.3998 47.6891 44.9803C47.8098 46.5607 48.3151 48.0877 49.1609 49.4282C50.0068 50.7687 51.1676 51.8821 52.5422 52.6713C50.4756 54.0482 48.7954 55.9306 47.6614 58.1397C45.9746 54.8418 43.107 52.3005 39.6301 51.0226L31.3377 48.0027V44.1177C32.8336 43.2465 34.143 42.0886 35.1906 40.7105C36.2382 39.3323 37.0036 37.761 37.4428 36.0865H37.8672C39.166 36.0865 40.4116 35.5705 41.33 34.6521C42.2483 33.7338 42.7643 32.4882 42.7643 31.1894C42.7643 29.8906 42.2483 28.645 41.33 27.7266C40.4116 26.8082 39.166 26.2923 37.8672 26.2923V12.2376L42.7643 10.6052V18.1304H46.029V8.33624C46.0265 7.99484 45.9185 7.66256 45.7198 7.38494C45.5211 7.10732 45.2414 6.89794 44.919 6.78549L25.3306 0.25603C24.9918 0.141585 24.6247 0.141585 24.2859 0.25603L4.6975 6.78549C4.37091 6.89284 4.08655 7.10055 3.88496 7.37901C3.68337 7.65747 3.57484 7.99247 3.57484 8.33624C3.57484 8.68002 3.68337 9.01501 3.88496 9.29348C4.08655 9.57194 4.37091 9.77965 4.6975 9.88699L11.7493 12.2376V26.2923C10.4505 26.2923 9.20493 26.8082 8.28655 27.7266C7.36816 28.645 6.85222 29.8906 6.85222 31.1894C6.85222 32.4882 7.36816 33.7338 8.28655 34.6521C9.20493 35.5705 10.4505 36.0865 11.7493 36.0865H12.1737C12.6129 37.761 13.3783 39.3323 14.4259 40.7105C15.4735 42.0886 16.7828 43.2465 18.2788 44.1177V48.0027L9.98636 51.0226C7.15701 52.0556 4.71302 53.9324 2.98476 56.3992C1.25649 58.8661 0.327291 61.8041 0.322754 64.8161V80.1604C0.322754 80.5933 0.494735 81.0085 0.800863 81.3146C1.10699 81.6208 1.52219 81.7927 1.95512 81.7927H93.3676C93.8006 81.7927 94.2158 81.6208 94.5219 81.3146C94.828 81.0085 95 80.5933 95 80.1604V64.8161C94.9902 62.4135 94.3913 60.05 93.2558 57.9326C92.1203 55.8153 90.4828 54.0087 88.4869 52.6713ZM11.7493 32.8217C11.3164 32.8217 10.9012 32.6498 10.5951 32.3436C10.2889 32.0375 10.117 31.6223 10.117 31.1894C10.117 30.7564 10.2889 30.3412 10.5951 30.0351C10.9012 29.729 11.3164 29.557 11.7493 29.557V32.8217ZM32.8395 52.0184L31.0765 54.7281L28.1056 51.7735L29.8033 50.9247L32.8395 52.0184ZM34.6024 24.6109C33.9808 24.5022 33.4037 24.2165 32.9405 23.788C32.4772 23.3594 32.1474 22.8063 31.9907 22.195L31.7948 21.3952H34.6024V24.6109ZM34.6024 18.1304H15.0141V13.315L24.2859 16.4165C24.6256 16.5253 24.9909 16.5253 25.3306 16.4165L34.6024 13.315V18.1304ZM27.7792 21.3952C27.4403 22.3464 26.8167 23.1702 25.993 23.7543C25.1693 24.3385 24.1857 24.6547 23.1759 24.6599H15.0141V21.3952H27.7792ZM39.4995 31.1894C39.4995 31.6223 39.3276 32.0375 39.0214 32.3436C38.7153 32.6498 38.3001 32.8217 37.8672 32.8217V29.557C38.3001 29.557 38.7153 29.729 39.0214 30.0351C39.3276 30.3412 39.4995 30.7564 39.4995 31.1894ZM10.3781 8.33624L24.8082 3.52076L39.2384 8.33624L24.8082 13.1517L10.3781 8.33624ZM15.0141 32.8217V27.9246H23.1759C24.4112 27.923 25.6301 27.6416 26.7411 27.1016C27.8522 26.5617 28.8265 25.7771 29.5911 24.8068C30.1256 25.6783 30.8578 26.4117 31.7285 26.9477C32.5991 27.4836 33.5836 27.8071 34.6024 27.892V32.8217C34.6024 35.4193 33.5706 37.9105 31.7338 39.7473C29.897 41.5841 27.4058 42.6159 24.8082 42.6159C22.2107 42.6159 19.7195 41.5841 17.8827 39.7473C16.0459 37.9105 15.0141 35.4193 15.0141 32.8217ZM28.073 45.4563V48.1333L26.0488 49.1454H23.5676L21.5435 48.1333V45.4563C23.6832 46.0222 25.9333 46.0222 28.073 45.4563ZM19.8132 50.9247L21.5109 51.7735L18.54 54.7281L16.777 52.0184L19.8132 50.9247ZM23.1759 78.528H3.58749V64.8161C3.59427 62.4714 4.31914 60.185 5.66453 58.2647C7.00993 56.3444 8.91127 54.8823 11.1127 54.0751L13.6265 53.161L16.9076 58.205C17.044 58.406 17.2229 58.5745 17.4316 58.6986C17.6404 58.8227 17.8739 58.8994 18.1155 58.9233C18.1688 58.9368 18.2239 58.9423 18.2788 58.9396C18.7124 58.9409 19.129 58.7707 19.4378 58.4662L19.5194 58.3683L23.1759 64.2938V78.528ZM21.9026 56.0013L24.8082 53.0794L27.7139 56.0013L24.8082 60.7189L21.9026 56.0013ZM46.029 78.528H26.4406V64.2938L30.0971 58.3683L30.1787 58.4662C30.4875 58.7707 30.9041 58.9409 31.3377 58.9396C31.3926 58.9423 31.4476 58.9368 31.501 58.9233C31.7426 58.8994 31.9761 58.8227 32.1849 58.6986C32.3936 58.5745 32.5725 58.406 32.7089 58.205L35.99 53.161L38.5038 54.0751C40.7052 54.8823 42.6066 56.3444 43.952 58.2647C45.2974 60.185 46.0222 62.4714 46.029 64.8161V78.528ZM86.8382 34.4541C86.8282 34.6412 86.8008 34.827 86.7566 35.0091C86.3561 34.8648 85.9473 34.7448 85.5323 34.65L84.8793 37.8494C86.3905 38.1558 87.7441 38.988 88.6995 40.1983C89.6549 41.4085 90.1501 42.9184 90.0973 44.4594C90.0444 46.0004 89.4468 47.4727 88.4107 48.6146C87.3746 49.7566 85.9672 50.4941 84.4386 50.6962L77.044 48.0027V44.1177C79.0267 42.9721 80.6735 41.3255 81.8194 39.343C82.9654 37.3605 83.5703 35.1116 83.5734 32.8217V31.1894C84.4385 31.192 85.2674 31.5367 85.8791 32.1484C86.4908 32.7601 86.8356 33.589 86.8382 34.4541ZM74.8566 50.6798L75.9993 51.0879C74.3016 51.9569 72.4217 52.4101 70.5145 52.4101C68.6073 52.4101 66.7274 51.9569 65.0298 51.0879L66.1724 50.6798C66.489 50.5674 66.7627 50.3593 66.9557 50.0844C67.1488 49.8095 67.2515 49.4813 67.2498 49.1454V45.4563C69.3895 46.0222 71.6395 46.0222 73.7792 45.4563V49.1454C73.7775 49.4813 73.8802 49.8095 74.0733 50.0844C74.2663 50.3593 74.54 50.5674 74.8566 50.6798ZM70.5145 42.6159C67.9169 42.6159 65.4257 41.5841 63.589 39.7473C61.7522 37.9105 60.7203 35.4193 60.7203 32.8217V27.9246H65.3889C66.7333 27.9258 68.0572 27.594 69.2421 26.9588C70.4271 26.3236 71.4362 25.4048 72.1795 24.2845L72.4081 23.958L73.9751 25.5414C74.7342 26.2993 75.6353 26.8999 76.6269 27.3089C77.6185 27.7178 78.6811 27.9271 79.7537 27.9246H80.3087V32.8217C80.3087 35.4193 79.2768 37.9105 77.44 39.7473C75.6033 41.5841 73.1121 42.6159 70.5145 42.6159ZM59.0879 18.1304V12.7763L69.9921 16.4165C70.3319 16.5253 70.6971 16.5253 71.0369 16.4165L81.9411 12.7763V18.1304H59.0879ZM81.9411 21.3952V24.6599H79.7537C79.1102 24.6633 78.4726 24.538 77.8783 24.2913C77.284 24.0446 76.745 23.6815 76.2931 23.2234L74.4485 21.3952H81.9411ZM70.188 21.3952L69.4698 22.4725C69.0221 23.1448 68.4154 23.6963 67.7036 24.0778C66.9917 24.4594 66.1966 24.6593 65.3889 24.6599H59.0879V21.3952H70.188ZM70.5145 3.52076L84.9446 8.33624L70.5145 13.1517L56.0844 8.33624L70.5145 3.52076ZM50.9261 44.2483C50.929 42.7464 51.4479 41.2911 52.3959 40.1262C53.3439 38.9612 54.6634 38.1574 56.1334 37.8494L55.4804 34.65C55.0702 34.7426 54.6666 34.8626 54.2725 35.0091C54.2282 34.827 54.2008 34.6412 54.1908 34.4541C54.1934 33.589 54.5382 32.7601 55.1499 32.1484C55.7616 31.5367 56.5905 31.192 57.4556 31.1894V32.8217C57.4587 35.1116 58.0636 37.3605 59.2096 39.343C60.3555 41.3255 62.0023 42.9721 63.985 44.1177V48.0027L56.5904 50.6962C55.0276 50.4848 53.5937 49.716 52.5529 48.5311C51.512 47.3463 50.9343 45.8253 50.9261 44.2483ZM68.8821 78.528H49.2937V64.8161C49.3005 62.4714 50.0254 60.185 51.3708 58.2647C52.7162 56.3444 54.6175 54.8823 56.819 54.0751L60.2306 52.8345L68.8821 64.3754V78.528ZM65.9276 54.9893C68.9172 55.9034 72.1118 55.9034 75.1015 54.9893L70.5145 61.1106L65.9276 54.9893ZM91.7353 78.528H72.1469V64.3754L80.7984 52.8345L84.2101 54.0751C86.4115 54.8823 88.3128 56.3444 89.6582 58.2647C91.0036 60.185 91.7285 62.4714 91.7353 64.8161V78.528Z" fill="#99B6E8" fill-opacity="0.8"/>
</svg>
