<svg width="63" height="80" viewBox="0 0 63 80" fill="none" xmlns="http://www.w3.org/2000/svg">
<path d="M54.4787 52.2655L49.807 50.8869L39.6431 44.2149V42.6861C42.5858 40.4553 44.6066 37.0455 44.9822 33.1369C46.4581 32.8981 47.5888 31.6092 47.5888 30.0599V25.856C47.5888 25.8397 47.5871 25.8238 47.5863 25.8075V20.4822C48.1743 20.0591 48.5474 19.3699 48.5474 18.5967V13.7233L55.5617 12.5225C56.7145 12.3252 57.5435 11.405 57.625 10.2327C57.7061 9.06035 57.0123 8.03347 55.898 7.67738L32.2516 0.11832C31.7582 -0.0394922 31.237 -0.0393359 30.7439 0.118164L7.09717 7.67738C5.98292 8.03347 5.28891 9.06035 5.37022 10.2325C5.42183 10.9774 5.77599 11.6196 6.32262 12.0402V18.4132H6.26479C4.93319 18.4132 3.84988 19.5019 3.84988 20.8402V24.0036L2.29099 33.1992C2.02157 34.7897 3.24044 36.2455 4.84955 36.2455H10.1276C11.7331 36.2455 12.9562 34.7931 12.6861 33.1991L11.1272 24.0036V20.8402C11.1272 19.5019 10.0439 18.4132 8.71234 18.4132H8.65466V12.7314L14.4527 13.7239V18.5967C14.4527 19.3666 14.8241 20.0547 15.4093 20.4785L15.4115 25.8564V30.0599C15.4115 31.6094 16.5422 32.8981 18.0181 33.1369C18.3936 37.0433 20.4122 40.4516 23.3521 42.6825V44.2185L13.1903 50.8892L8.52235 52.2663C3.52728 53.7397 0.000310768 58.3486 0.000310768 63.7061V67.1986C0.000310768 67.8458 0.522221 68.3705 1.16633 68.3705C1.81044 68.3705 2.33235 67.8459 2.33235 67.1986V63.7061C2.33235 59.4836 5.14774 55.7041 9.17921 54.515L13.5286 53.2319L30.9048 63.6089C31.2575 63.8195 31.7243 63.8308 32.096 63.6089L49.4732 53.2313L53.8222 54.5144C57.853 55.7038 60.6684 59.4831 60.6684 63.7053V75.0238C60.6684 76.4755 59.4932 77.6566 58.0488 77.6566H52.9094V72.6053C52.9094 71.9581 52.3875 71.4334 51.7434 71.4334C51.0995 71.4334 50.5774 71.958 50.5774 72.6053V77.6566H12.4178V72.6053C12.4178 71.9581 11.8959 71.4334 11.2518 71.4334C10.6077 71.4334 10.0858 71.958 10.0858 72.6053V77.6566H4.95169C3.50723 77.6566 2.33204 76.4755 2.33204 75.0238V72.6766C2.33204 72.0294 1.81013 71.5047 1.16602 71.5047C0.52191 71.5047 0 72.0292 0 72.6766V75.0236C0 77.7677 2.22119 80 4.95154 80H58.0485C60.7788 80 63 77.7677 63 75.0236V63.7052C63 58.4739 59.5934 53.7747 54.4787 52.2655ZM10.1274 33.9017H4.84955C4.68646 33.9017 4.56209 33.7553 4.58976 33.5927L5.99987 25.2746H8.9771L10.3872 33.5925C10.4147 33.7549 10.2913 33.9017 10.1274 33.9017ZM8.7952 20.8402V22.931H6.18161V20.8402C6.18161 20.7941 6.21877 20.7567 6.26463 20.7567H8.71203C8.75805 20.7566 8.7952 20.7941 8.7952 20.8402ZM27.3299 58.308L27.794 59.0249L15.8899 51.916L23.4458 46.9558C23.7885 50.9964 25.1137 54.8847 27.3299 58.308ZM27.3218 53.2494C30.0663 53.6413 32.9323 53.6416 35.6783 53.2494C35.1477 54.5616 34.4938 55.8278 33.7157 57.03L31.5001 60.4525L29.2845 57.03C28.5064 55.8278 27.8525 54.5616 27.3218 53.2494ZM35.6702 58.308C37.8864 54.8847 39.2117 50.9964 39.5542 46.9558L47.1101 51.9158L35.2062 59.0249L35.6702 58.308ZM42.4908 20.9186H45.2544V24.6839H43.8827C43.1152 24.6839 42.4907 24.0564 42.4907 23.285V20.9186H42.4908ZM7.80393 9.91082L31.4509 2.35144C31.4813 2.34176 31.5139 2.3416 31.5447 2.3516L55.1916 9.91082C55.2404 9.92644 55.3074 9.94769 55.2988 10.0697C55.2903 10.1916 55.2211 10.2033 55.1704 10.2121L47.3522 11.5503L44.4169 11.1855C43.7783 11.106 43.1959 11.5625 43.1167 12.2047C43.0378 12.8471 43.4919 13.4321 44.1309 13.5114L46.2157 13.7707V18.575L16.7846 18.5739V13.7705L28.8501 12.27C30.6075 12.0518 32.3892 12.0518 34.1454 12.27L38.712 12.8377C39.351 12.9172 39.9332 12.4608 40.0123 11.8186C40.0915 11.1763 39.6373 10.5913 38.9984 10.5118L34.4318 9.9441C32.4858 9.70207 30.5113 9.70207 28.5639 9.9441L15.6453 11.5507L7.82476 10.2121C7.77408 10.2033 7.7049 10.1916 7.69635 10.0697C7.68795 9.94769 7.75496 9.92628 7.80393 9.91082ZM17.7428 24.6839L17.7412 20.9186H20.5093V23.2852C20.5093 24.0564 19.885 24.6841 19.1173 24.6841H17.7428V24.6839ZM20.3091 32.5346C20.2491 31.5803 19.4599 30.8328 18.5126 30.8328C18.0884 30.8328 17.7432 30.486 17.7432 30.0597V27.0277H19.1173C21.1705 27.0277 22.8412 25.3488 22.8412 23.2852V20.9186H40.1588V23.2852C40.1588 25.3488 41.8295 27.0277 43.8827 27.0277H45.2568V30.0597C45.2568 30.486 44.9116 30.8328 44.4874 30.8328C43.5401 30.8328 42.7509 31.5803 42.6909 32.5347C42.3195 38.4517 37.4039 43.0869 31.4999 43.0869C25.596 43.0869 20.6805 38.4517 20.3091 32.5346ZM31.5001 45.4305C33.5739 45.4305 35.5449 44.9539 37.3112 44.1066V44.8492C37.3112 46.8528 37.0422 48.8292 36.5244 50.7355C33.3556 51.3427 29.7731 51.3672 26.4758 50.7355C25.9579 48.8294 25.6889 46.853 25.6889 44.8492C25.6889 44.8244 25.6855 44.8002 25.684 44.7756C25.6837 44.7708 25.6841 44.766 25.6838 44.7611V44.1042C27.4513 44.953 29.4243 45.4305 31.5001 45.4305Z" fill="#5586D9" fill-opacity="0.6"/>
</svg>
