<svg width="61" height="78" viewBox="0 0 61 78" fill="none" xmlns="http://www.w3.org/2000/svg">
<path d="M54.876 18.3177C54.245 18.3177 53.7335 18.8293 53.7335 19.4603V70.7516C53.7335 70.795 53.6983 70.8302 53.6549 70.8302H13.355C12.724 70.8302 12.2124 71.3418 12.2124 71.9728C12.2124 72.6038 12.724 73.1154 13.355 73.1154H53.6549C54.9583 73.1154 56.0186 72.0551 56.0186 70.7516V19.4603C56.0186 18.8293 55.5071 18.3177 54.876 18.3177Z" fill="#5586D9" fill-opacity="0.6"/>
<path d="M58.5394 4.88476H48.0217L44.1871 1.05011C43.5099 0.372938 42.6097 0 41.6521 0H2.36377C1.06031 0 0 1.06031 0 2.36377V70.7515C0 72.0549 1.06031 73.1152 2.36377 73.1152H4.88476V75.6362C4.88476 76.9397 5.94508 78 7.24853 78H58.5394C59.8429 78 60.9032 76.9397 60.9032 75.6362V7.24868C60.9032 5.94523 59.8429 4.88476 58.5394 4.88476ZM42.585 2.67973L53.3386 13.4332H42.6637C42.6202 13.4332 42.585 13.3981 42.585 13.3546V2.67973ZM58.618 75.6364C58.618 75.6798 58.5828 75.715 58.5394 75.715H7.24853C7.20511 75.715 7.16992 75.6798 7.16992 75.6364V73.1154H8.46942C9.10042 73.1154 9.612 72.6038 9.612 71.9728C9.612 71.3418 9.10042 70.8302 8.46942 70.8302H2.36377C2.32035 70.8302 2.28516 70.795 2.28516 70.7516V2.36377C2.28516 2.32035 2.32035 2.28516 2.36377 2.28516H40.2999V13.3546C40.2999 14.6581 41.3602 15.7184 42.6637 15.7184H54.8759C55.5069 15.7184 56.0184 15.2068 56.0184 14.5758V14.3663C56.0184 13.4089 55.6455 12.5085 54.9683 11.8313L50.3069 7.16992H58.5394C58.5828 7.16992 58.618 7.20511 58.618 7.24853V75.6364Z" fill="#5586D9" fill-opacity="0.6"/>
<path d="M22.711 13.0527C22.2647 12.6065 21.5413 12.6065 21.0952 13.0527L14.6314 19.5165C14.6006 19.5471 14.5508 19.5471 14.5202 19.5165L11.9434 16.9397H13.927C14.558 16.9397 15.0695 16.4282 15.0695 15.7972C15.0695 15.1661 14.558 14.6546 13.927 14.6546H10.9121C10.5467 14.6546 10.2018 14.7403 9.89258 14.889L9.27757 14.274C8.83136 13.8278 8.10787 13.8278 7.66181 14.274C7.21559 14.7202 7.21559 15.4437 7.66181 15.8898L8.56003 16.788C8.55272 16.8637 8.54845 16.9405 8.54845 17.0182V24.3455C8.54845 25.6489 9.60877 26.7093 10.9122 26.7093H18.2395C19.543 26.7093 20.6033 25.6489 20.6033 24.3455V16.7761L22.711 14.6684C23.1572 14.2222 23.1572 13.4987 22.711 13.0527ZM18.3181 24.3456C18.3181 24.3891 18.2829 24.4242 18.2395 24.4242H10.9122C10.8688 24.4242 10.8336 24.3891 10.8336 24.3456V19.0613L12.9044 21.1321C13.3653 21.5929 13.9705 21.8234 14.5759 21.8234C15.1812 21.8234 15.7865 21.5929 16.2473 21.1321L18.3181 19.0613V24.3456Z" fill="#5586D9" fill-opacity="0.6"/>
<path d="M18.2399 30.5302H10.9126C9.60914 30.5302 8.54883 31.5905 8.54883 32.894V40.2212C8.54883 41.5247 9.60914 42.585 10.9126 42.585H18.2399C19.5433 42.585 20.6037 41.5247 20.6037 40.2212V32.894C20.6037 31.5906 19.5433 30.5302 18.2399 30.5302ZM18.3185 40.2212C18.3185 40.2647 18.2833 40.2999 18.2399 40.2999H10.9126C10.8692 40.2999 10.834 40.2647 10.834 40.2212V32.894C10.834 32.8505 10.8692 32.8153 10.9126 32.8153H18.2399C18.2833 32.8153 18.3185 32.8505 18.3185 32.894V40.2212Z" fill="#5586D9" fill-opacity="0.6"/>
<path d="M18.2399 46.406H10.9126C9.60914 46.406 8.54883 47.4663 8.54883 48.7698V56.0971C8.54883 57.4005 9.60914 58.4608 10.9126 58.4608H18.2399C19.5433 58.4608 20.6037 57.4004 20.6037 56.0971V48.7698C20.6037 47.4663 19.5433 46.406 18.2399 46.406ZM18.3185 56.0971C18.3185 56.1405 18.2833 56.1757 18.2399 56.1757H10.9126C10.8692 56.1757 10.834 56.1403 10.834 56.0971V48.7698C10.834 48.7264 10.8692 48.6912 10.9126 48.6912H18.2399C18.2833 48.6912 18.3185 48.7264 18.3185 48.7698V56.0971Z" fill="#5586D9" fill-opacity="0.6"/>
<path d="M36.5578 17.097H25.5669C24.9359 17.097 24.4243 17.6085 24.4243 18.2395C24.4243 18.8705 24.9357 19.3821 25.5669 19.3821H36.5578C37.1888 19.3821 37.7003 18.8705 37.7003 18.2395C37.7003 17.6085 37.1888 17.097 36.5578 17.097Z" fill="#5586D9" fill-opacity="0.6"/>
<path d="M46.3274 21.9819H25.5669C24.9359 21.9819 24.4243 22.4934 24.4243 23.1245C24.4243 23.7555 24.9357 24.267 25.5669 24.267H46.3274C46.9584 24.267 47.47 23.7555 47.47 23.1245C47.47 22.4934 46.9586 21.9819 46.3274 21.9819Z" fill="#5586D9" fill-opacity="0.6"/>
<path d="M36.5578 32.9727H25.5669C24.9359 32.9727 24.4243 33.4843 24.4243 34.1153C24.4243 34.7463 24.9357 35.2579 25.5669 35.2579H36.5578C37.1888 35.2579 37.7003 34.7463 37.7003 34.1153C37.7003 33.4843 37.1888 32.9727 36.5578 32.9727Z" fill="#5586D9" fill-opacity="0.6"/>
<path d="M46.3274 37.8575H25.5669C24.9359 37.8575 24.4243 38.3691 24.4243 39.0001C24.4243 39.6311 24.9357 40.1427 25.5669 40.1427H46.3274C46.9584 40.1427 47.47 39.6311 47.47 39.0001C47.47 38.3691 46.9586 37.8575 46.3274 37.8575Z" fill="#5586D9" fill-opacity="0.6"/>
<path d="M36.5578 48.8484H25.5669C24.9359 48.8484 24.4243 49.3599 24.4243 49.9909C24.4243 50.6219 24.9357 51.1335 25.5669 51.1335H36.5578C37.1888 51.1335 37.7003 50.6219 37.7003 49.9909C37.7003 49.3599 37.1888 48.8484 36.5578 48.8484Z" fill="#5586D9" fill-opacity="0.6"/>
<path d="M46.3274 53.7331H25.5669C24.9359 53.7331 24.4243 54.2447 24.4243 54.8757C24.4243 55.5067 24.9357 56.0183 25.5669 56.0183H46.3274C46.9584 56.0183 47.47 55.5067 47.47 54.8757C47.47 54.2447 46.9586 53.7331 46.3274 53.7331Z" fill="#5586D9" fill-opacity="0.6"/>
</svg>
