<svg width="47" height="47" viewBox="0 0 47 47" fill="none" xmlns="http://www.w3.org/2000/svg">
<path d="M46.2656 23.9931C46.4604 23.9931 46.6472 23.9157 46.7849 23.778C46.9226 23.6403 47 23.4535 47 23.2587V20.3212C47 20.1265 46.9226 19.9397 46.7849 19.802C46.6472 19.6642 46.4604 19.5869 46.2656 19.5869H35.73C36.5662 18.9817 37.2724 18.2149 37.807 17.3319C38.3415 16.4489 38.6934 15.4677 38.8419 14.4462H40.3906V12.9775H38.9127C38.8194 10.9976 37.9673 9.12964 36.5331 7.76145C35.099 6.39326 33.193 5.62992 31.2109 5.62992C29.2288 5.62992 27.3229 6.39326 25.8887 7.76145C24.4546 9.12964 23.6024 10.9976 23.5092 12.9775H21.2877C21.1944 10.9976 20.3423 9.12964 18.9081 7.76145C17.474 6.39326 15.568 5.62992 13.5859 5.62992C11.6038 5.62992 9.69787 6.39326 8.26373 7.76145C6.82958 9.12964 5.97743 10.9976 5.88418 12.9775H4.40625V14.4462H5.95496C6.10347 15.4677 6.4554 16.4489 6.98993 17.3319C7.52445 18.2149 8.23071 18.9817 9.06687 19.5869H5.74465C4.2216 19.5886 2.76143 20.1944 1.68447 21.2713C0.607517 22.3483 0.00172523 23.8085 1.91537e-07 25.3315V27.7953C-0.000208509 28.6026 0.170137 29.4008 0.499878 30.1377C0.829619 30.8746 1.31132 31.5335 1.91341 32.0712H0.734375C0.539607 32.0712 0.352816 32.1486 0.215094 32.2863C0.0773716 32.4241 1.91537e-07 32.6108 1.91537e-07 32.8056V35.7431C1.91537e-07 35.9379 0.0773716 36.1247 0.215094 36.2624C0.352816 36.4001 0.539607 36.4775 0.734375 36.4775H2.9375V41.6181H0.734375C0.539607 41.6181 0.352816 41.6955 0.215094 41.8332C0.0773716 41.9709 1.91537e-07 42.1577 1.91537e-07 42.3525V45.29C1.91537e-07 45.4848 0.0773716 45.6716 0.215094 45.8093C0.352816 45.947 0.539607 46.0244 0.734375 46.0244H41.2554C42.7784 46.0226 44.2386 45.4169 45.3155 44.3399C46.3925 43.2629 46.9983 41.8028 47 40.2797V37.8159C47.0002 37.0086 46.8299 36.2104 46.5001 35.4735C46.1704 34.7366 45.6887 34.0777 45.0866 33.54H46.2656C46.4604 33.54 46.6472 33.4626 46.7849 33.3249C46.9226 33.1872 47 33.0004 47 32.8056V29.8681C47 29.6733 46.9226 29.4866 46.7849 29.3488C46.6472 29.2111 46.4604 29.1337 46.2656 29.1337H44.0625V23.9931H46.2656ZM31.2109 7.10249C32.4455 7.10249 33.6524 7.46859 34.6789 8.15449C35.7054 8.84039 36.5055 9.81528 36.978 10.9559C37.4504 12.0965 37.574 13.3516 37.3332 14.5625C37.0923 15.7733 36.4978 16.8856 35.6248 17.7586C34.7518 18.6316 33.6396 19.2261 32.4287 19.4669C31.2179 19.7078 29.9628 19.5842 28.8222 19.1117C27.6815 18.6392 26.7066 17.8392 26.0207 16.8127C25.3348 15.7861 24.9688 14.5793 24.9688 13.3447C24.9706 11.6897 25.6289 10.1031 26.7991 8.93285C27.9693 7.76262 29.556 7.10436 31.2109 7.10249ZM26.6919 19.5869H18.105C18.9412 18.9817 19.6474 18.2149 20.1819 17.3319C20.7165 16.4489 21.0684 15.4677 21.2169 14.4462H23.58C23.7285 15.4677 24.0804 16.4489 24.6149 17.3319C25.1494 18.2149 25.8557 18.9817 26.6919 19.5869ZM7.34375 13.3447C7.34375 12.1101 7.70985 10.9032 8.39575 9.8767C9.08165 8.85018 10.0565 8.0501 11.1972 7.57765C12.3378 7.10519 13.5929 6.98157 14.8037 7.22243C16.0146 7.46329 17.1268 8.0578 17.9998 8.93078C18.8728 9.80377 19.4673 10.916 19.7082 12.1269C19.949 13.3378 19.8254 14.5928 19.353 15.7335C18.8805 16.8741 18.0804 17.849 17.0539 18.5349C16.0274 19.2208 14.8205 19.5869 13.5859 19.5869C11.931 19.585 10.3443 18.9267 9.17411 17.7565C8.00388 16.5863 7.34562 14.9996 7.34375 13.3447ZM4.40625 39.415H22.7656V37.9462H4.40625V36.4775H40.5742C41.1096 36.4781 41.623 36.6911 42.0016 37.0697C42.3802 37.4483 42.5931 37.9616 42.5938 38.497V39.5464C42.5931 40.0818 42.3802 40.5951 42.0016 40.9737C41.623 41.3523 41.1096 41.5653 40.5742 41.5659H4.40625V39.415ZM45.5312 37.8159V40.2797C45.53 41.4134 45.0791 42.5002 44.2774 43.3018C43.4758 44.1034 42.389 44.5543 41.2554 44.5556H1.46875V43.0869H3.67188V43.0346H40.5742C41.499 43.0336 42.3857 42.6657 43.0396 42.0118C43.6936 41.3578 44.0615 40.4712 44.0625 39.5464V38.497C44.0615 37.5722 43.6936 36.6855 43.0396 36.0316C42.3857 35.3776 41.499 35.0098 40.5742 35.0087H1.46875V33.54H41.2554C42.389 33.5413 43.4758 33.9922 44.2774 34.7938C45.0791 35.5954 45.53 36.6822 45.5312 37.8159ZM45.5312 32.0712H5.74465C4.61101 32.07 3.52416 31.619 2.72255 30.8174C1.92095 30.0158 1.47004 28.929 1.46875 27.7953V25.3315C1.47004 24.1979 1.92095 23.111 2.72255 22.3094C3.52416 21.5078 4.61101 21.0569 5.74465 21.0556H45.5312V22.5244H6.42578C4.50236 22.5244 2.9375 24.1124 2.9375 26.0649V27.1142C2.93854 28.039 3.3064 28.9257 3.96035 29.5796C4.6143 30.2336 5.50095 30.6014 6.42578 30.6025H45.5312V32.0712ZM42.5938 23.9931V29.1337H6.42578C5.89035 29.1331 5.37703 28.9202 4.99843 28.5416C4.61982 28.163 4.40686 27.6496 4.40625 27.1142V26.0649C4.40625 24.9418 5.3311 23.9931 6.42578 23.9931H42.5938Z" fill="#5586D9"/>
<path d="M16.8906 26.1962H35.9844V27.665H16.8906V26.1962Z" fill="#5586D9"/>
<path d="M8.8125 13.3447H10.2812C10.2822 12.4685 10.6307 11.6285 11.2503 11.009C11.8698 10.3895 12.7098 10.041 13.5859 10.04V8.57123C12.3204 8.57266 11.1071 9.07604 10.2122 9.97092C9.31731 10.8658 8.81393 12.0791 8.8125 13.3447Z" fill="#5586D9"/>
<path d="M31.2109 10.04V8.57123C29.9454 8.57266 28.7321 9.07604 27.8372 9.97092C26.9423 10.8658 26.4389 12.0791 26.4375 13.3447H27.9062C27.9072 12.4685 28.2557 11.6285 28.8753 11.009C29.4948 10.3895 30.3348 10.041 31.2109 10.04Z" fill="#5586D9"/>
<path d="M42.5938 8.57123C43.1747 8.57123 43.7427 8.39895 44.2257 8.07617C44.7088 7.7534 45.0853 7.29462 45.3077 6.75786C45.53 6.22111 45.5882 5.63047 45.4748 5.06065C45.3615 4.49083 45.0817 3.96742 44.6709 3.5566C44.2601 3.14579 43.7367 2.86602 43.1668 2.75267C42.597 2.63933 42.0064 2.6975 41.4696 2.91984C40.9329 3.14217 40.4741 3.51867 40.1513 4.00174C39.8285 4.48481 39.6562 5.05275 39.6562 5.63373C39.6571 6.41254 39.9669 7.15919 40.5176 7.70989C41.0683 8.26059 41.8149 8.57036 42.5938 8.57123ZM42.5938 4.16498C42.8842 4.16498 43.1682 4.25112 43.4097 4.41251C43.6513 4.5739 43.8395 4.80329 43.9507 5.07167C44.0619 5.34004 44.091 5.63536 44.0343 5.92027C43.9776 6.20518 43.8377 6.46689 43.6323 6.67229C43.4269 6.8777 43.1652 7.01759 42.8803 7.07426C42.5954 7.13093 42.3001 7.10185 42.0317 6.99068C41.7633 6.87951 41.5339 6.69126 41.3725 6.44973C41.2111 6.20819 41.125 5.92422 41.125 5.63373C41.1254 5.24433 41.2803 4.871 41.5557 4.59565C41.831 4.3203 42.2043 4.16542 42.5938 4.16498Z" fill="#5586D9"/>
<path d="M0.382018 4.92992L2.48903 6.08225L3.64145 8.18926C3.70469 8.30487 3.79788 8.40133 3.91124 8.46853C4.0246 8.53573 4.15395 8.57119 4.28573 8.57119C4.41751 8.57119 4.54686 8.53573 4.66021 8.46853C4.77357 8.40133 4.86676 8.30487 4.93 8.18926L6.08242 6.08225L8.18943 4.92992C8.30507 4.86668 8.40155 4.77349 8.46877 4.66013C8.53598 4.54676 8.57145 4.41739 8.57145 4.2856C8.57145 4.1538 8.53598 4.02443 8.46877 3.91107C8.40155 3.7977 8.30507 3.70451 8.18943 3.64127L6.08242 2.48895L4.93 0.381934C4.86676 0.266323 4.77357 0.169859 4.66021 0.102659C4.54686 0.0354593 4.41751 0 4.28573 0C4.15395 0 4.0246 0.0354593 3.91124 0.102659C3.79788 0.169859 3.70469 0.266323 3.64145 0.381934L2.48903 2.48895L0.382018 3.64118C0.266384 3.70442 0.169899 3.79761 0.102683 3.91098C0.035468 4.02434 0 4.15371 0 4.2855C0 4.4173 0.035468 4.54667 0.102683 4.66003C0.169899 4.7734 0.266384 4.86659 0.382018 4.92983V4.92992ZM3.38258 3.67432C3.5058 3.60693 3.60711 3.50562 3.6745 3.38241L4.28577 2.26478L4.89705 3.38241C4.96444 3.50562 5.06575 3.60693 5.18896 3.67432L6.3065 4.2855L5.18887 4.89678C5.06565 4.96417 4.96435 5.06548 4.89696 5.18869L4.28577 6.30641L3.6744 5.18869C3.60701 5.06548 3.50571 4.96417 3.38249 4.89678L2.26496 4.2855L3.38258 3.67432Z" fill="#5586D9"/>
<path d="M20.5625 4.89935H22.0312V6.3681H20.5625V4.89935Z" fill="#5586D9"/>
<path d="M27.1719 1.96185H28.6406V3.4306H27.1719V1.96185Z" fill="#5586D9"/>
</svg>
