<svg width="54" height="45" viewBox="0 0 54 45" fill="none" xmlns="http://www.w3.org/2000/svg">
<path d="M53.1 20.7H52.2V19.8C52.1981 18.8349 51.8822 17.8967 51.3 17.127V6.3C51.2981 4.62972 50.6337 3.0284 49.4527 1.84733C48.2716 0.666266 46.6703 0.00190563 45 0H41.4C39.7297 0.00190563 38.1284 0.666266 36.9473 1.84733C35.7663 3.0284 35.1019 4.62972 35.1 6.3V17.127C34.6855 17.6757 34.405 18.3136 34.281 18.99C33.494 18.3525 32.5128 18.0032 31.5 18H29.7V16.371C30.5201 15.8975 31.2013 15.2167 31.6752 14.3969C32.1491 13.577 32.399 12.647 32.4 11.7V4.5C32.4 4.2613 32.3052 4.03239 32.1364 3.8636C31.9676 3.69482 31.7387 3.6 31.5 3.6H28.098C27.8469 3.31805 27.5392 3.09217 27.1949 2.9371C26.8506 2.78203 26.4776 2.70124 26.1 2.7H19.8C19.5613 2.7 19.3324 2.79482 19.1636 2.9636C18.9948 3.13239 18.9 3.3613 18.9 3.6V5.4C18.9026 6.1961 19.169 6.96889 19.6575 7.59748C20.1461 8.22606 20.8292 8.67498 21.6 8.874V11.7C21.601 12.647 21.8509 13.577 22.3248 14.3969C22.7987 15.2167 23.4799 15.8975 24.3 16.371V18H22.5C21.4872 18.0032 20.506 18.3525 19.719 18.99C19.5297 17.9555 18.984 17.02 18.1768 16.3459C17.3695 15.6718 16.3517 15.3018 15.3 15.3H13.5V14.022C14.3012 13.6706 14.9829 13.0939 15.4623 12.3621C15.9416 11.6302 16.198 10.7748 16.2 9.9V6.3C16.2 5.10653 15.7259 3.96193 14.882 3.11802C14.0381 2.27411 12.8935 1.8 11.7 1.8C11.5042 1.8019 11.3088 1.81694 11.115 1.845C10.2303 1.22902 9.178 0.899189 8.1 0.9C6.66783 0.9 5.29432 1.46893 4.28162 2.48162C3.26893 3.49432 2.7 4.86783 2.7 6.3C2.7 6.53869 2.79482 6.76761 2.9636 6.9364C3.13239 7.10518 3.3613 7.2 3.6 7.2H5.4V9.9C5.40205 10.7748 5.65835 11.6302 6.13771 12.3621C6.61707 13.0939 7.29883 13.6706 8.1 14.022V15.3H6.3C5.10653 15.3 3.96193 15.7741 3.11802 16.618C2.27411 17.4619 1.8 18.6065 1.8 19.8V20.7H0.9C0.661305 20.7 0.432387 20.7948 0.263604 20.9636C0.0948211 21.1324 0 21.3613 0 21.6V25.2C0 25.4387 0.0948211 25.6676 0.263604 25.8364C0.432387 26.0052 0.661305 26.1 0.9 26.1H1.8V40.5C1.8 40.7387 1.89482 40.9676 2.0636 41.1364C2.23239 41.3052 2.46131 41.4 2.7 41.4H14.4V44.1C14.4 44.3387 14.4948 44.5676 14.6636 44.7364C14.8324 44.9052 15.0613 45 15.3 45H38.7C38.9387 45 39.1676 44.9052 39.3364 44.7364C39.5052 44.5676 39.6 44.3387 39.6 44.1V41.4H51.3C51.5387 41.4 51.7676 41.3052 51.9364 41.1364C52.1052 40.9676 52.2 40.7387 52.2 40.5V26.1H53.1C53.3387 26.1 53.5676 26.0052 53.7364 25.8364C53.9052 25.6676 54 25.4387 54 25.2V21.6C54 21.3613 53.9052 21.1324 53.7364 20.9636C53.5676 20.7948 53.3387 20.7 53.1 20.7ZM36.9 6.3C36.9 5.10653 37.3741 3.96193 38.218 3.11802C39.0619 2.27411 40.2065 1.8 41.4 1.8H45C46.1935 1.8 47.3381 2.27411 48.182 3.11802C49.0259 3.96193 49.5 5.10653 49.5 6.3V15.678C48.9329 15.4279 48.3198 15.2992 47.7 15.3H45.9V14.571C46.7184 14.0956 47.3983 13.4144 47.8719 12.595C48.3456 11.7756 48.5966 10.8465 48.6 9.9V6.3C48.6 6.06131 48.5052 5.83239 48.3364 5.6636C48.1676 5.49482 47.9387 5.4 47.7 5.4H47.016C46.8473 5.40034 46.6819 5.35327 46.5387 5.26415C46.3955 5.17504 46.2802 5.04747 46.206 4.896L45.9 4.284V3.6H44.1V4.5C44.1 4.73869 44.0052 4.96761 43.8364 5.1364C43.6676 5.30518 43.4387 5.4 43.2 5.4H38.7C38.4613 5.4 38.2324 5.49482 38.0636 5.6636C37.8948 5.83239 37.8 6.06131 37.8 6.3V9.9C37.7811 10.8484 38.0228 11.7838 38.4989 12.6043C38.975 13.4248 39.6672 14.0988 40.5 14.553V15.3H38.7C38.0802 15.2992 37.4671 15.4279 36.9 15.678V6.3ZM41.76 13.203C41.3486 13.0234 40.9735 12.7703 40.653 12.456C39.9796 11.7756 39.6013 10.8573 39.6 9.9V7.2H43.2C43.5545 7.20003 43.9055 7.13009 44.2329 6.99418C44.5604 6.85827 44.8577 6.65907 45.108 6.408C45.5611 6.86162 46.1609 7.13918 46.8 7.191V9.9C46.7987 10.5995 46.5949 11.2836 46.2132 11.8698C45.8315 12.4559 45.2882 12.919 44.649 13.203C44.1926 13.399 43.7012 13.5 43.2045 13.5C42.7078 13.5 42.2164 13.399 41.76 13.203ZM44.1 15.219V16.2C44.1 16.4387 44.0052 16.6676 43.8364 16.8364C43.6676 17.0052 43.4387 17.1 43.2 17.1C42.9613 17.1 42.7324 17.0052 42.5636 16.8364C42.3948 16.6676 42.3 16.4387 42.3 16.2V15.219C42.8951 15.327 43.5049 15.327 44.1 15.219ZM36 19.8C36.0021 19.0846 36.2873 18.3991 36.7932 17.8932C37.2991 17.3873 37.9846 17.1021 38.7 17.1H40.662C40.8463 17.6261 41.1895 18.0819 41.6442 18.4044C42.0989 18.7269 42.6426 18.9002 43.2 18.9002C43.7574 18.9002 44.3011 18.7269 44.7558 18.4044C45.2105 18.0819 45.5537 17.6261 45.738 17.1H47.7C48.4154 17.1021 49.1009 17.3873 49.6068 17.8932C50.1127 18.3991 50.3979 19.0846 50.4 19.8V20.7H36V19.8ZM22.5 7.2C22.023 7.19858 21.566 7.00848 21.2288 6.67122C20.8915 6.33396 20.7014 5.87695 20.7 5.4V4.5H26.1C26.3387 4.5 26.5676 4.59482 26.7364 4.7636C26.9052 4.93239 27 5.1613 27 5.4V6.3H28.8V5.4H30.6V6.3C30.6 6.53869 30.5052 6.76761 30.3364 6.9364C30.1676 7.10518 29.9387 7.2 29.7 7.2H22.5ZM23.4 11.7V9H29.7C30.007 8.99757 30.3114 8.94278 30.6 8.838V11.7C30.6 12.6548 30.2207 13.5705 29.5456 14.2456C28.8705 14.9207 27.9548 15.3 27 15.3C26.0452 15.3 25.1295 14.9207 24.4544 14.2456C23.7793 13.5705 23.4 12.6548 23.4 11.7ZM27.9 17.019V18.9C27.9 19.1387 27.8052 19.3676 27.6364 19.5364C27.4676 19.7052 27.2387 19.8 27 19.8C26.7613 19.8 26.5324 19.7052 26.3636 19.5364C26.1948 19.3676 26.1 19.1387 26.1 18.9V17.019C26.6951 17.127 27.3049 17.127 27.9 17.019ZM19.8 22.5C19.8021 21.7846 20.0873 21.0991 20.5932 20.5932C21.0991 20.0873 21.7846 19.8021 22.5 19.8H24.462C24.6463 20.3261 24.9895 20.7819 25.4442 21.1044C25.8989 21.4269 26.4426 21.6002 27 21.6002C27.5574 21.6002 28.1011 21.4269 28.5558 21.1044C29.0105 20.7819 29.3537 20.3261 29.538 19.8H31.5C32.2154 19.8021 32.9009 20.0873 33.4068 20.5932C33.9127 21.0991 34.1979 21.7846 34.2 22.5V24.3H19.8V22.5ZM4.617 5.4C4.76324 4.81768 5.05401 4.28167 5.4624 3.84155C5.87078 3.40144 6.38359 3.07145 6.95335 2.88212C7.52312 2.6928 8.13144 2.65026 8.72201 2.75843C9.31259 2.86661 9.86633 3.12201 10.332 3.501C10.4384 3.58535 10.5624 3.64455 10.6949 3.67416C10.8274 3.70377 10.9648 3.70304 11.097 3.672C11.295 3.62746 11.4971 3.60333 11.7 3.6C12.2582 3.60154 12.8022 3.77522 13.2581 4.09735C13.7139 4.41948 14.0592 4.87438 14.247 5.4H4.617ZM7.2 9.9V7.2H14.4V9.9C14.3979 10.6154 14.1127 11.3009 13.6068 11.8068C13.1009 12.3127 12.4154 12.5979 11.7 12.6H9.9C9.18457 12.5979 8.49906 12.3127 7.99317 11.8068C7.48729 11.3009 7.20214 10.6154 7.2 9.9ZM11.7 14.4V16.2C11.7 16.4387 11.6052 16.6676 11.4364 16.8364C11.2676 17.0052 11.0387 17.1 10.8 17.1C10.5613 17.1 10.3324 17.0052 10.1636 16.8364C9.99482 16.6676 9.9 16.4387 9.9 16.2V14.4H11.7ZM3.6 19.8C3.60214 19.0846 3.88729 18.3991 4.39317 17.8932C4.89906 17.3873 5.58457 17.1021 6.3 17.1H8.262C8.44629 17.6261 8.78951 18.0819 9.2442 18.4044C9.69888 18.7269 10.2426 18.9002 10.8 18.9002C11.3574 18.9002 11.9011 18.7269 12.3558 18.4044C12.8105 18.0819 13.1537 17.6261 13.338 17.1H15.3C16.0154 17.1021 16.7009 17.3873 17.2068 17.8932C17.7127 18.3991 17.9979 19.0846 18 19.8V20.7H3.6V19.8ZM1.8 24.3V22.5H18V24.3H1.8ZM14.4 39.6H3.6V26.1H11.7V28.8C11.7 29.0387 11.7948 29.2676 11.9636 29.4364C12.1324 29.6052 12.3613 29.7 12.6 29.7H14.4V39.6ZM37.8 43.2H16.2V29.7H37.8V43.2ZM13.5 27.9V26.1H40.5V27.9H13.5ZM50.4 39.6H39.6V29.7H41.4C41.6387 29.7 41.8676 29.6052 42.0364 29.4364C42.2052 29.2676 42.3 29.0387 42.3 28.8V26.1H50.4V39.6ZM52.2 24.3H36V22.5H52.2V24.3Z" fill="#5586D9"/>
</svg>
