<svg width="118" height="79" viewBox="0 0 118 79" fill="none" xmlns="http://www.w3.org/2000/svg">
<path d="M20.3399 13.432H12.9899C12.9004 13.4261 12.8106 13.4394 12.7267 13.471C12.6427 13.5026 12.5665 13.5518 12.5031 13.6152C12.4396 13.6786 12.3905 13.7549 12.3589 13.8388C12.3273 13.9228 12.314 14.0125 12.3199 14.102V24.802H9.91989C9.83038 24.7961 9.74065 24.8094 9.65669 24.841C9.57273 24.8726 9.49649 24.9218 9.43306 24.9852C9.36963 25.0486 9.32047 25.1249 9.28889 25.2088C9.2573 25.2928 9.24401 25.3825 9.24989 25.472V28.132C9.24401 28.2215 9.2573 28.3113 9.28889 28.3952C9.32047 28.4792 9.36963 28.5554 9.43306 28.6189C9.49649 28.6823 9.57273 28.7314 9.65669 28.763C9.74065 28.7946 9.83038 28.8079 9.91989 28.802H12.3199V31.472H9.91989C9.83038 31.4661 9.74065 31.4794 9.65669 31.511C9.57273 31.5426 9.49649 31.5918 9.43306 31.6552C9.36963 31.7186 9.32047 31.7949 9.28889 31.8788C9.2573 31.9628 9.24401 32.0525 9.24989 32.142V34.812C9.24401 34.9015 9.2573 34.9913 9.28889 35.0752C9.32047 35.1592 9.36963 35.2354 9.43306 35.2989C9.49649 35.3623 9.57273 35.4114 9.65669 35.443C9.74065 35.4746 9.83038 35.4879 9.91989 35.482H12.3199V38.292C12.3316 38.4659 12.4059 38.6296 12.5292 38.7528C12.6524 38.876 12.8161 38.9503 12.9899 38.962H15.6599C15.7494 38.9679 15.8391 38.9546 15.9231 38.923C16.0071 38.8914 16.0833 38.8423 16.1467 38.7789C16.2102 38.7154 16.2593 38.6392 16.2909 38.5552C16.3225 38.4713 16.3358 38.3815 16.3299 38.292V35.222H22.0799C22.1694 35.2279 22.2591 35.2146 22.3431 35.183C22.4271 35.1514 22.5033 35.1023 22.5667 35.0389C22.6302 34.9754 22.6793 34.8992 22.7109 34.8152C22.7425 34.7313 22.7558 34.6415 22.7499 34.552V31.882C22.7382 31.7082 22.6638 31.5445 22.5406 31.4213C22.4174 31.2981 22.2537 31.2237 22.0799 31.212H16.3299V28.542H20.4799C21.4996 28.5318 22.5071 28.3186 23.4435 27.9148C24.3799 27.5111 25.2266 26.9248 25.9341 26.1904C26.6415 25.4559 27.1956 24.5879 27.564 23.637C27.9325 22.6862 28.1078 21.6714 28.0799 20.652C28.0799 16.642 24.4799 13.432 20.3399 13.432ZM20.6099 24.662H16.4699V17.442H20.6099C21.5673 17.442 22.4855 17.8224 23.1625 18.4994C23.8396 19.1764 24.2199 20.0946 24.2199 21.052C24.2199 22.0095 23.8396 22.9277 23.1625 23.6047C22.4855 24.2817 21.5673 24.662 20.6099 24.662Z" fill="#99B6E8" fill-opacity="0.7"/>
<path d="M51.7624 39.2545C48.3563 37.7866 44.6697 37.0834 40.9624 37.1945C33.8624 37.1945 26.5624 39.4945 26.5624 43.8945V53.6945C23.7624 52.0945 19.5624 51.2945 15.3624 51.2945C8.2624 51.2545 0.962402 53.5945 0.962402 57.9945V72.1945C0.962402 76.5945 8.1624 78.8945 15.3624 78.8945C20.4624 78.8945 25.6624 77.6945 28.1624 75.3945C30.6624 77.6945 35.8624 78.8945 40.9624 78.8945C47.4824 78.8945 54.1624 76.9445 55.2024 73.2245V44.6045C55.2256 43.4718 54.9107 42.3579 54.298 41.405C53.6853 40.4521 52.8025 39.7034 51.7624 39.2545ZM26.5624 72.1945C26.5624 73.3945 22.2624 75.6945 15.3624 75.6945C8.4624 75.6945 4.1624 73.3945 4.1624 72.1945V69.4945C6.9624 71.0945 11.1624 71.8945 15.3624 71.8945C19.5624 71.8945 23.7624 71.0945 26.5624 69.4945V72.1945ZM26.5624 65.0945C26.5624 66.2945 22.2624 68.5945 15.3624 68.5945C8.4624 68.5945 4.1624 66.2545 4.1624 65.0945V62.3945C6.9624 63.9945 11.1624 64.7945 15.3624 64.7945C19.5624 64.7945 23.7624 63.9945 26.5624 62.3945V65.0945ZM15.3624 61.4945C8.4624 61.4945 4.1624 59.2945 4.1624 57.9945C4.1624 56.6945 8.3624 54.4945 15.3624 54.4945C22.3624 54.4945 26.5624 56.7945 26.5624 57.9945C26.5624 59.1945 22.2624 61.4945 15.3624 61.4945ZM52.0624 72.1945C52.0624 73.3945 47.8624 75.6945 40.8624 75.6945C33.8624 75.6945 29.6624 73.3945 29.6624 72.1945V69.4945C32.4624 71.0945 36.6624 71.8945 40.8624 71.8945C45.0624 71.8945 49.2624 71.0945 52.0624 69.4945V72.1945ZM52.0624 65.0945C52.0624 66.2945 47.7624 68.5945 40.8624 68.5945C33.9624 68.5945 29.6624 66.2545 29.6624 65.0945V62.3945C32.4624 63.9945 36.6624 64.7945 40.8624 64.7945C45.0624 64.7945 49.2624 63.9945 52.0624 62.3945V65.0945ZM52.0624 57.9945C52.0624 59.2945 47.8624 61.4945 40.8624 61.4945C33.8624 61.4945 29.6624 59.1945 29.6624 57.9945V55.2545C32.4624 56.8545 36.6624 57.6545 40.8624 57.6545C45.0624 57.6545 49.2624 56.8545 52.0624 55.2545V57.9945ZM52.0624 50.8945C52.0624 52.0945 47.7624 54.3945 40.8624 54.3945C33.9624 54.3945 29.6624 52.1945 29.6624 50.8945V48.1945C32.4624 49.7945 36.6624 50.5945 40.8624 50.5945C45.0624 50.5945 49.2624 49.7945 52.0624 48.1945V50.8945ZM40.8624 47.2545C33.9624 47.2545 29.6624 44.9545 29.6624 43.7545C29.6624 42.5545 33.9624 40.2545 40.8624 40.2545C47.7624 40.2545 52.0624 42.5545 52.0624 43.7545C52.0624 44.9545 47.7624 47.2545 40.8624 47.2545Z" fill="#99B6E8" fill-opacity="0.7"/>
<mask id="path-3-inside-1_43:180" fill="white">
<path d="M115.652 68.6333L114.097 68.4832V64.8585C114.107 63.8822 113.894 62.9164 113.475 62.0344C113.057 61.1523 112.443 60.3771 111.68 59.7674C110.918 59.1577 110.026 58.7296 109.074 58.5155C108.121 58.3013 107.132 58.3067 106.182 58.5314L102.472 59.3678L103.029 55.0782L110.536 52.7404C110.801 52.6578 111.033 52.4924 111.197 52.2685C111.361 52.0446 111.449 51.774 111.448 51.4964V46.6921C112.48 46.6921 113.47 46.282 114.2 45.5519C114.93 44.8219 115.341 43.8317 115.341 42.7993V40.2041C115.341 39.1717 114.93 38.1815 114.2 37.4515C113.47 36.7215 112.48 36.3113 111.448 36.3113V27.2388C111.447 27.0252 111.393 26.8151 111.292 26.6272C111.19 26.4393 111.044 26.2793 110.865 26.1616C110.687 26.0438 110.483 25.9719 110.27 25.9521C110.057 25.9324 109.843 25.9655 109.646 26.0485L104.284 28.3327L96.6487 26.3702C96.9903 25.3986 97.1644 24.376 97.1635 23.3461C98.1855 23.3489 99.167 22.9464 99.8927 22.2267C100.618 21.507 101.029 20.5289 101.035 19.5069V10.3808C101.032 7.64513 99.9508 5.02087 98.0254 3.07745C96.1001 1.13403 93.4861 0.0282305 90.7505 0L85.5601 0C82.8097 0.00567539 80.1737 1.10153 78.2299 3.04738C76.286 4.99323 75.1929 7.63036 75.1901 10.3808V19.464C75.1858 19.971 75.2815 20.4738 75.4716 20.9438C75.6617 21.4139 75.9425 21.8418 76.298 22.2033C76.6535 22.5648 77.0768 22.8527 77.5436 23.0506C78.0103 23.2485 78.5115 23.3526 79.0185 23.3568C79.0581 24.3877 79.2645 25.4054 79.6298 26.3702L71.9729 28.322L66.6109 26.0378C66.4141 25.9548 66.1998 25.9217 65.9871 25.9414C65.7743 25.9611 65.5698 26.0331 65.3916 26.1508C65.2133 26.2686 65.0669 26.4285 64.9653 26.6165C64.8638 26.8044 64.8102 27.0145 64.8093 27.2281V36.3113C63.7768 36.3113 62.7867 36.7215 62.0567 37.4515C61.3266 38.1815 60.9165 39.1717 60.9165 40.2041V42.7993C60.9165 43.8317 61.3266 44.8219 62.0567 45.5519C62.7867 46.282 63.7768 46.6921 64.8093 46.6921V51.5608C64.8082 51.8384 64.8961 52.109 65.0602 52.3329C65.2243 52.5568 65.4558 52.7222 65.7208 52.8048L73.2276 55.1426L73.7852 59.4322L70.0747 58.5957C69.1246 58.3711 68.1358 58.3657 67.1832 58.5798C66.2306 58.794 65.3393 59.2221 64.5767 59.8318C63.814 60.4414 63.2002 61.2167 62.7816 62.0987C62.3629 62.9808 62.1505 63.9465 62.1605 64.9228V68.5583L60.6591 68.6333C60.0191 68.6947 59.425 68.9924 58.9927 69.4683C58.5604 69.9442 58.321 70.5641 58.3213 71.2071V73.9202C58.3213 74.9527 58.7314 75.9428 59.4615 76.6729C60.1915 77.4029 61.1817 77.813 62.2141 77.813H66.1069H66.3643L71.3616 76.8157C71.4126 77.0833 71.5479 77.3276 71.7477 77.5128C71.9822 77.7183 72.283 77.8325 72.5949 77.8345H72.7557L88.1875 75.8613L103.555 77.8345H103.727C104.042 77.8351 104.347 77.7208 104.584 77.5128C104.784 77.3276 104.92 77.0833 104.97 76.8157L109.968 77.813H110.215H114.107C115.14 77.813 116.13 77.4029 116.86 76.6729C117.59 75.9428 118 74.9527 118 73.9202V71.2178C118.003 70.5713 117.763 69.9473 117.328 69.4689C116.894 68.9905 116.295 68.6923 115.652 68.6333ZM112.799 40.2041V42.7993C112.799 43.1435 112.662 43.4735 112.419 43.7169C112.176 43.9602 111.846 44.0969 111.501 44.0969H107.609V38.9172H111.501C111.844 38.9172 112.172 39.0525 112.415 39.2935C112.658 39.5345 112.796 39.8618 112.799 40.2041ZM108.906 36.3113H107.609C106.92 36.3113 106.26 36.5847 105.774 37.0714C105.287 37.5581 105.013 38.2182 105.013 38.9065V44.0969C105.013 44.4377 105.081 44.7752 105.211 45.09C105.341 45.4049 105.533 45.691 105.774 45.932C106.014 46.173 106.301 46.3641 106.615 46.4946C106.93 46.625 107.268 46.6921 107.609 46.6921H108.906V50.5956L89.4529 56.6118V37.5338L108.906 29.2335V36.3113ZM77.8067 10.3701C77.8067 8.3052 78.627 6.3249 80.0871 4.86482C81.5471 3.40474 83.5274 2.58447 85.5923 2.58447H90.7827C92.8476 2.58447 94.8279 3.40474 96.2879 4.86482C97.748 6.3249 98.5683 8.3052 98.5683 10.3701V15.8178C98.1523 15.6634 97.7142 15.5765 97.2707 15.5605V12.5256C97.2698 11.7581 97.0987 11.0004 96.7697 10.307C96.4407 9.61361 95.9621 9.0018 95.3682 8.51564C94.7743 8.02948 94.0801 7.68106 93.3354 7.49548C92.5907 7.30991 91.8141 7.29178 91.0615 7.44243L82.6968 9.10464C82.4841 9.14664 82.2853 9.24127 82.1186 9.3799C81.9519 9.51853 81.8225 9.69673 81.7424 9.89821L79.4797 15.5605H77.7638L77.8067 10.3701ZM79.1043 20.7509C78.915 20.7506 78.728 20.7089 78.5565 20.6287C78.385 20.5486 78.2331 20.4318 78.1115 20.2867C77.9899 20.1416 77.9015 19.9717 77.8526 19.7888C77.8036 19.6059 77.7953 19.4145 77.8282 19.2281C77.9045 18.9136 78.0871 18.6352 78.345 18.4398C78.6029 18.2444 78.9204 18.1441 79.2437 18.1557H80.4019C80.6642 18.1593 80.9214 18.0833 81.1396 17.9379C81.3579 17.7924 81.5269 17.5841 81.6244 17.3406L83.9623 11.5068L91.587 9.984C91.9629 9.90958 92.3506 9.91932 92.7223 10.0125C93.094 10.1057 93.4404 10.2801 93.7367 10.5231C94.033 10.7661 94.2718 11.0716 94.436 11.4179C94.6001 11.7641 94.6856 12.1424 94.6862 12.5256V16.8152C94.6862 17.1593 94.8229 17.4894 95.0663 17.7327C95.3096 17.9761 95.6397 18.1128 95.9838 18.1128H97.142C97.4654 18.1012 97.7828 18.2015 98.0407 18.3969C98.2987 18.5923 98.4812 18.8707 98.5576 19.1852C98.5867 19.3543 98.582 19.5275 98.5437 19.6947C98.5055 19.862 98.4344 20.02 98.3347 20.1596C98.235 20.2993 98.1085 20.4177 97.9627 20.5082C97.8169 20.5986 97.6546 20.6592 97.4852 20.6865H97.26H95.9302C95.5861 20.6865 95.256 20.8232 95.0127 21.0666C94.7693 21.3099 94.6326 21.64 94.6326 21.9841V23.2817C94.6397 24.1312 94.4785 24.9737 94.1583 25.7605C93.8381 26.5474 93.3653 27.263 92.7671 27.8662C92.1689 28.4694 91.4572 28.9481 90.673 29.2748C89.8888 29.6015 89.0477 29.7697 88.1982 29.7697H87.9516C86.2324 29.6733 84.6162 28.919 83.4382 27.6631C82.2602 26.4072 81.6107 24.7462 81.6244 23.0243V22.0592C81.6244 21.715 81.4877 21.385 81.2444 21.1416C81.001 20.8983 80.671 20.7616 80.3268 20.7616L79.1043 20.7509ZM81.0025 28.7188C81.7979 29.8194 82.8328 30.7252 84.029 31.3679C85.2253 32.0106 86.5518 32.3735 87.9087 32.4292H88.1875C90.5437 32.4325 92.8074 31.5124 94.4932 29.8662C94.8527 29.5151 95.1827 29.1349 95.4798 28.7295L100.424 30.0271L88.1553 35.2282L75.8979 30.0271L81.0025 28.7188ZM63.5117 42.7993V40.2041C63.5117 39.86 63.6484 39.5299 63.8917 39.2866C64.1351 39.0432 64.4651 38.9065 64.8093 38.9065H68.7021V44.0969H64.8093C64.4651 44.0969 64.1351 43.9602 63.8917 43.7169C63.6484 43.4735 63.5117 43.1435 63.5117 42.7993ZM67.4045 46.6921H68.7021C69.3904 46.6921 70.0505 46.4187 70.5372 45.932C71.0239 45.4453 71.2973 44.7852 71.2973 44.0969V38.9172C71.2973 38.229 71.0239 37.5689 70.5372 37.0822C70.0505 36.5955 69.3904 36.322 68.7021 36.322H67.4045V29.2013L86.8577 37.5338V56.6118L67.4045 50.6063V46.6921ZM75.9836 55.9683L87.78 59.6038C88.028 59.6806 88.2934 59.6806 88.5414 59.6038L100.338 55.9683L99.8552 59.4965V59.9684L88.1553 62.6065L76.4769 59.9684V59.6681L75.9836 55.9683ZM82.2464 63.9255L76.4555 65.2338V62.6279L82.2464 63.9255ZM64.7878 64.8478C64.788 64.2637 64.9195 63.6872 65.1727 63.1609C65.4259 62.6346 65.7942 62.1721 66.2505 61.8075C66.7067 61.4429 67.2392 61.1856 67.8084 61.0548C68.3775 60.9239 68.9689 60.9228 69.5386 61.0515L73.8281 62.0274V65.8129L72.241 66.1668C71.9545 66.2324 71.6987 66.3933 71.5156 66.6232C71.3325 66.8531 71.2328 67.1383 71.2329 67.4322V67.5609L64.7986 68.2044L64.7878 64.8478ZM65.9567 75.2286H62.2141C61.8699 75.2286 61.5399 75.0919 61.2965 74.8485C61.0532 74.6052 60.9165 74.2751 60.9165 73.931V71.2178L71.2973 70.1454V74.1347L65.9567 75.2286ZM73.871 68.7942V68.5368L106.74 61.1158C107.309 60.9873 107.899 60.9882 108.468 61.1185C109.036 61.2488 109.568 61.5051 110.024 61.8685C110.48 62.2319 110.848 62.6931 111.102 63.218C111.356 63.743 111.489 64.3183 111.491 64.9014V70.2634C101.496 71.5181 79.7263 74.3063 73.8817 75.0677L73.871 68.7942ZM102.418 73.9953V75.0677L98.3538 74.5315L102.418 73.9953ZM115.394 73.9202C115.394 74.2644 115.257 74.5944 115.014 74.8378C114.771 75.0811 114.441 75.2178 114.097 75.2178H110.332L104.97 74.1454V73.6736L112.928 72.6012C113.232 72.5477 113.506 72.3877 113.703 72.1499C113.899 71.9121 114.005 71.612 114 71.3036V71.0462L115.298 71.1749L115.394 73.9202Z"/>
</mask>
<path d="M115.652 68.6333L114.097 68.4832V64.8585C114.107 63.8822 113.894 62.9164 113.475 62.0344C113.057 61.1523 112.443 60.3771 111.68 59.7674C110.918 59.1577 110.026 58.7296 109.074 58.5155C108.121 58.3013 107.132 58.3067 106.182 58.5314L102.472 59.3678L103.029 55.0782L110.536 52.7404C110.801 52.6578 111.033 52.4924 111.197 52.2685C111.361 52.0446 111.449 51.774 111.448 51.4964V46.6921C112.48 46.6921 113.47 46.282 114.2 45.5519C114.93 44.8219 115.341 43.8317 115.341 42.7993V40.2041C115.341 39.1717 114.93 38.1815 114.2 37.4515C113.47 36.7215 112.48 36.3113 111.448 36.3113V27.2388C111.447 27.0252 111.393 26.8151 111.292 26.6272C111.19 26.4393 111.044 26.2793 110.865 26.1616C110.687 26.0438 110.483 25.9719 110.27 25.9521C110.057 25.9324 109.843 25.9655 109.646 26.0485L104.284 28.3327L96.6487 26.3702C96.9903 25.3986 97.1644 24.376 97.1635 23.3461C98.1855 23.3489 99.167 22.9464 99.8927 22.2267C100.618 21.507 101.029 20.5289 101.035 19.5069V10.3808C101.032 7.64513 99.9508 5.02087 98.0254 3.07745C96.1001 1.13403 93.4861 0.0282305 90.7505 0L85.5601 0C82.8097 0.00567539 80.1737 1.10153 78.2299 3.04738C76.286 4.99323 75.1929 7.63036 75.1901 10.3808V19.464C75.1858 19.971 75.2815 20.4738 75.4716 20.9438C75.6617 21.4139 75.9425 21.8418 76.298 22.2033C76.6535 22.5648 77.0768 22.8527 77.5436 23.0506C78.0103 23.2485 78.5115 23.3526 79.0185 23.3568C79.0581 24.3877 79.2645 25.4054 79.6298 26.3702L71.9729 28.322L66.6109 26.0378C66.4141 25.9548 66.1998 25.9217 65.9871 25.9414C65.7743 25.9611 65.5698 26.0331 65.3916 26.1508C65.2133 26.2686 65.0669 26.4285 64.9653 26.6165C64.8638 26.8044 64.8102 27.0145 64.8093 27.2281V36.3113C63.7768 36.3113 62.7867 36.7215 62.0567 37.4515C61.3266 38.1815 60.9165 39.1717 60.9165 40.2041V42.7993C60.9165 43.8317 61.3266 44.8219 62.0567 45.5519C62.7867 46.282 63.7768 46.6921 64.8093 46.6921V51.5608C64.8082 51.8384 64.8961 52.109 65.0602 52.3329C65.2243 52.5568 65.4558 52.7222 65.7208 52.8048L73.2276 55.1426L73.7852 59.4322L70.0747 58.5957C69.1246 58.3711 68.1358 58.3657 67.1832 58.5798C66.2306 58.794 65.3393 59.2221 64.5767 59.8318C63.814 60.4414 63.2002 61.2167 62.7816 62.0987C62.3629 62.9808 62.1505 63.9465 62.1605 64.9228V68.5583L60.6591 68.6333C60.0191 68.6947 59.425 68.9924 58.9927 69.4683C58.5604 69.9442 58.321 70.5641 58.3213 71.2071V73.9202C58.3213 74.9527 58.7314 75.9428 59.4615 76.6729C60.1915 77.4029 61.1817 77.813 62.2141 77.813H66.1069H66.3643L71.3616 76.8157C71.4126 77.0833 71.5479 77.3276 71.7477 77.5128C71.9822 77.7183 72.283 77.8325 72.5949 77.8345H72.7557L88.1875 75.8613L103.555 77.8345H103.727C104.042 77.8351 104.347 77.7208 104.584 77.5128C104.784 77.3276 104.92 77.0833 104.97 76.8157L109.968 77.813H110.215H114.107C115.14 77.813 116.13 77.4029 116.86 76.6729C117.59 75.9428 118 74.9527 118 73.9202V71.2178C118.003 70.5713 117.763 69.9473 117.328 69.4689C116.894 68.9905 116.295 68.6923 115.652 68.6333ZM112.799 40.2041V42.7993C112.799 43.1435 112.662 43.4735 112.419 43.7169C112.176 43.9602 111.846 44.0969 111.501 44.0969H107.609V38.9172H111.501C111.844 38.9172 112.172 39.0525 112.415 39.2935C112.658 39.5345 112.796 39.8618 112.799 40.2041ZM108.906 36.3113H107.609C106.92 36.3113 106.26 36.5847 105.774 37.0714C105.287 37.5581 105.013 38.2182 105.013 38.9065V44.0969C105.013 44.4377 105.081 44.7752 105.211 45.09C105.341 45.4049 105.533 45.691 105.774 45.932C106.014 46.173 106.301 46.3641 106.615 46.4946C106.93 46.625 107.268 46.6921 107.609 46.6921H108.906V50.5956L89.4529 56.6118V37.5338L108.906 29.2335V36.3113ZM77.8067 10.3701C77.8067 8.3052 78.627 6.3249 80.0871 4.86482C81.5471 3.40474 83.5274 2.58447 85.5923 2.58447H90.7827C92.8476 2.58447 94.8279 3.40474 96.2879 4.86482C97.748 6.3249 98.5683 8.3052 98.5683 10.3701V15.8178C98.1523 15.6634 97.7142 15.5765 97.2707 15.5605V12.5256C97.2698 11.7581 97.0987 11.0004 96.7697 10.307C96.4407 9.61361 95.9621 9.0018 95.3682 8.51564C94.7743 8.02948 94.0801 7.68106 93.3354 7.49548C92.5907 7.30991 91.8141 7.29178 91.0615 7.44243L82.6968 9.10464C82.4841 9.14664 82.2853 9.24127 82.1186 9.3799C81.9519 9.51853 81.8225 9.69673 81.7424 9.89821L79.4797 15.5605H77.7638L77.8067 10.3701ZM79.1043 20.7509C78.915 20.7506 78.728 20.7089 78.5565 20.6287C78.385 20.5486 78.2331 20.4318 78.1115 20.2867C77.9899 20.1416 77.9015 19.9717 77.8526 19.7888C77.8036 19.6059 77.7953 19.4145 77.8282 19.2281C77.9045 18.9136 78.0871 18.6352 78.345 18.4398C78.6029 18.2444 78.9204 18.1441 79.2437 18.1557H80.4019C80.6642 18.1593 80.9214 18.0833 81.1396 17.9379C81.3579 17.7924 81.5269 17.5841 81.6244 17.3406L83.9623 11.5068L91.587 9.984C91.9629 9.90958 92.3506 9.91932 92.7223 10.0125C93.094 10.1057 93.4404 10.2801 93.7367 10.5231C94.033 10.7661 94.2718 11.0716 94.436 11.4179C94.6001 11.7641 94.6856 12.1424 94.6862 12.5256V16.8152C94.6862 17.1593 94.8229 17.4894 95.0663 17.7327C95.3096 17.9761 95.6397 18.1128 95.9838 18.1128H97.142C97.4654 18.1012 97.7828 18.2015 98.0407 18.3969C98.2987 18.5923 98.4812 18.8707 98.5576 19.1852C98.5867 19.3543 98.582 19.5275 98.5437 19.6947C98.5055 19.862 98.4344 20.02 98.3347 20.1596C98.235 20.2993 98.1085 20.4177 97.9627 20.5082C97.8169 20.5986 97.6546 20.6592 97.4852 20.6865H97.26H95.9302C95.5861 20.6865 95.256 20.8232 95.0127 21.0666C94.7693 21.3099 94.6326 21.64 94.6326 21.9841V23.2817C94.6397 24.1312 94.4785 24.9737 94.1583 25.7605C93.8381 26.5474 93.3653 27.263 92.7671 27.8662C92.1689 28.4694 91.4572 28.9481 90.673 29.2748C89.8888 29.6015 89.0477 29.7697 88.1982 29.7697H87.9516C86.2324 29.6733 84.6162 28.919 83.4382 27.6631C82.2602 26.4072 81.6107 24.7462 81.6244 23.0243V22.0592C81.6244 21.715 81.4877 21.385 81.2444 21.1416C81.001 20.8983 80.671 20.7616 80.3268 20.7616L79.1043 20.7509ZM81.0025 28.7188C81.7979 29.8194 82.8328 30.7252 84.029 31.3679C85.2253 32.0106 86.5518 32.3735 87.9087 32.4292H88.1875C90.5437 32.4325 92.8074 31.5124 94.4932 29.8662C94.8527 29.5151 95.1827 29.1349 95.4798 28.7295L100.424 30.0271L88.1553 35.2282L75.8979 30.0271L81.0025 28.7188ZM63.5117 42.7993V40.2041C63.5117 39.86 63.6484 39.5299 63.8917 39.2866C64.1351 39.0432 64.4651 38.9065 64.8093 38.9065H68.7021V44.0969H64.8093C64.4651 44.0969 64.1351 43.9602 63.8917 43.7169C63.6484 43.4735 63.5117 43.1435 63.5117 42.7993ZM67.4045 46.6921H68.7021C69.3904 46.6921 70.0505 46.4187 70.5372 45.932C71.0239 45.4453 71.2973 44.7852 71.2973 44.0969V38.9172C71.2973 38.229 71.0239 37.5689 70.5372 37.0822C70.0505 36.5955 69.3904 36.322 68.7021 36.322H67.4045V29.2013L86.8577 37.5338V56.6118L67.4045 50.6063V46.6921ZM75.9836 55.9683L87.78 59.6038C88.028 59.6806 88.2934 59.6806 88.5414 59.6038L100.338 55.9683L99.8552 59.4965V59.9684L88.1553 62.6065L76.4769 59.9684V59.6681L75.9836 55.9683ZM82.2464 63.9255L76.4555 65.2338V62.6279L82.2464 63.9255ZM64.7878 64.8478C64.788 64.2637 64.9195 63.6872 65.1727 63.1609C65.4259 62.6346 65.7942 62.1721 66.2505 61.8075C66.7067 61.4429 67.2392 61.1856 67.8084 61.0548C68.3775 60.9239 68.9689 60.9228 69.5386 61.0515L73.8281 62.0274V65.8129L72.241 66.1668C71.9545 66.2324 71.6987 66.3933 71.5156 66.6232C71.3325 66.8531 71.2328 67.1383 71.2329 67.4322V67.5609L64.7986 68.2044L64.7878 64.8478ZM65.9567 75.2286H62.2141C61.8699 75.2286 61.5399 75.0919 61.2965 74.8485C61.0532 74.6052 60.9165 74.2751 60.9165 73.931V71.2178L71.2973 70.1454V74.1347L65.9567 75.2286ZM73.871 68.7942V68.5368L106.74 61.1158C107.309 60.9873 107.899 60.9882 108.468 61.1185C109.036 61.2488 109.568 61.5051 110.024 61.8685C110.48 62.2319 110.848 62.6931 111.102 63.218C111.356 63.743 111.489 64.3183 111.491 64.9014V70.2634C101.496 71.5181 79.7263 74.3063 73.8817 75.0677L73.871 68.7942ZM102.418 73.9953V75.0677L98.3538 74.5315L102.418 73.9953ZM115.394 73.9202C115.394 74.2644 115.257 74.5944 115.014 74.8378C114.771 75.0811 114.441 75.2178 114.097 75.2178H110.332L104.97 74.1454V73.6736L112.928 72.6012C113.232 72.5477 113.506 72.3877 113.703 72.1499C113.899 71.9121 114.005 71.612 114 71.3036V71.0462L115.298 71.1749L115.394 73.9202Z" fill="#99B6E8" fill-opacity="0.5" stroke="#99B6E8" stroke-opacity="0.5" stroke-width="6" mask="url(#path-3-inside-1_43:180)"/>
</svg>
