<svg width="43" height="40" viewBox="0 0 43 40" fill="none" xmlns="http://www.w3.org/2000/svg">
<path d="M40.1193 0H2.45659C1.10207 0 0 1.10198 0 2.45659V27.9028C0 29.2574 1.10207 30.3594 2.45659 30.3594H15.4252V34.8547H12.4228C11.3796 34.8547 10.531 35.7034 10.531 36.7465V38.3199C10.531 38.8309 10.9467 39.2466 11.4577 39.2466H31.118C31.629 39.2466 32.0447 38.8309 32.0447 38.3199V36.7465C32.0447 35.7034 31.1961 34.8547 30.153 34.8547H27.1506V33.8917C27.1506 33.547 26.8712 33.2675 26.5264 33.2675C26.1817 33.2675 25.9023 33.5469 25.9023 33.8917V34.8547H16.6735V30.3594H25.9023V30.9744C25.9023 31.3191 26.1817 31.5986 26.5265 31.5986C26.8713 31.5986 27.1507 31.3192 27.1507 30.9744V30.3594H40.1193C41.4739 30.3594 42.5759 29.2574 42.5759 27.9028V2.45659C42.5759 1.10198 41.4738 0 40.1193 0ZM30.153 36.103C30.5078 36.103 30.7965 36.3916 30.7965 36.7465V37.9984H11.7794V36.7465C11.7794 36.3916 12.068 36.103 12.4228 36.103H30.153ZM41.3276 26.6837V27.9028C41.3276 28.5692 40.7856 29.1112 40.1193 29.1112H2.45659C1.79026 29.1112 1.24825 28.5692 1.24825 27.9028V26.8916V26.2743H41.3276V26.6837ZM24.1988 12.4607V13.6767H6.92881V12.4607H24.1988ZM9.5478 11.2123L15.5637 6.45307L21.5798 11.2123H9.5478ZM21.9922 14.9249V22.5617H20.7015V14.9249H21.9922ZM19.4533 14.9249V22.5617H17.4575V14.9249H19.4533ZM16.2093 14.9249V22.5617H14.9185V14.9249H16.2093ZM13.6702 14.9249V22.5617H11.6745V14.9249H13.6702ZM9.13552 14.9249H10.4263V22.5617H9.13552V14.9249ZM24.3775 23.81V25.026H6.7501V23.81H24.3775ZM41.3276 25.026H39.7115V3.82975C39.7115 3.18213 39.1846 2.65525 38.537 2.65525H10.0526C9.70788 2.65525 9.42856 2.93466 9.42856 3.27942C9.42856 3.62419 9.70796 3.90359 10.0526 3.90359H38.4631V25.026H25.6258V23.6116C25.6258 23.0327 25.1549 22.5617 24.5761 22.5617H23.2404V14.9249H24.3973C24.9761 14.9249 25.4471 14.454 25.4471 13.8751V12.2621C25.4471 11.6832 24.9761 11.2123 24.3973 11.2123H23.5918L16.3209 5.46019C15.8752 5.10752 15.2527 5.10761 14.807 5.4601C14.8069 5.4601 14.8069 5.4601 14.8069 5.4601L7.53601 11.2122H6.73039C6.15155 11.2122 5.68055 11.6831 5.68055 12.262V13.875C5.68055 14.4538 6.15146 14.9248 6.73039 14.9248H7.88726V22.5616H6.55169C5.97284 22.5616 5.50185 23.0325 5.50185 23.6115V25.026H4.11273V3.90359H7.15507C7.49984 3.90359 7.77924 3.62419 7.77924 3.27942C7.77924 2.93466 7.49984 2.65525 7.15507 2.65525H4.03889C3.39127 2.65525 2.86439 3.18213 2.86439 3.82975V25.026H1.24825V2.45659C1.24825 1.79027 1.79026 1.24825 2.45659 1.24825H40.1192C40.7855 1.24825 41.3275 1.79027 41.3275 2.45659V25.026H41.3276Z" fill="white"/>
<path d="M27.6256 14.0391H36.2161C36.6892 14.0391 37.0741 13.6543 37.0741 13.1811V10.8627C37.0741 10.3896 36.6892 10.0047 36.2161 10.0047H27.6256C27.1524 10.0047 26.7676 10.3896 26.7676 10.8627V13.1811C26.7676 13.6543 27.1524 14.0391 27.6256 14.0391ZM28.0158 11.2529H35.8258V12.7909H28.0158V11.2529Z" fill="white"/>
<path d="M27.6256 18.9249H36.2161C36.6892 18.9249 37.0741 18.54 37.0741 18.0669V15.7484C37.0741 15.2753 36.6892 14.8904 36.2161 14.8904H27.6256C27.1524 14.8904 26.7676 15.2753 26.7676 15.7484V18.0669C26.7676 18.54 27.1524 18.9249 27.6256 18.9249ZM28.0158 16.1387H35.8258V17.6766H28.0158V16.1387Z" fill="white"/>
</svg>
