<svg width="82" height="82" viewBox="0 0 82 82" fill="none" xmlns="http://www.w3.org/2000/svg">
<path d="M80.789 36.4187H62.1055V29.2913H68.4143C68.6549 29.2913 68.89 29.2197 69.0897 29.0855C69.2894 28.9514 69.4446 28.7608 69.5356 28.5381C69.6265 28.3154 69.6491 28.0706 69.6003 27.835C69.5516 27.5994 69.4338 27.3837 69.262 27.2153L41.8477 0.345612C41.6211 0.124058 41.3169 0 41 0C40.6831 0 40.3789 0.124058 40.1523 0.345612L12.738 27.2174C12.5662 27.3858 12.4484 27.6015 12.3997 27.8371C12.3509 28.0727 12.3735 28.3174 12.4644 28.5402C12.5554 28.7629 12.7106 28.9535 12.9103 29.0876C13.11 29.2218 13.3451 29.2934 13.5857 29.2933H19.8945V36.4208H1.21097C1.05192 36.4207 0.894408 36.4519 0.747445 36.5128C0.600482 36.5736 0.466949 36.6628 0.354482 36.7752C0.242015 36.8877 0.152819 37.0212 0.0919946 37.1682C0.0311699 37.3152 -9.07672e-05 37.4727 1.97954e-07 37.6317V80.7887C-9.07672e-05 80.9477 0.0311699 81.1052 0.0919946 81.2522C0.152819 81.3991 0.242015 81.5327 0.354482 81.6451C0.466949 81.7576 0.600482 81.8468 0.747445 81.9076C0.894408 81.9685 1.05192 81.9997 1.21097 81.9996H80.789C80.9481 81.9997 81.1056 81.9685 81.2526 81.9076C81.3995 81.8468 81.5331 81.7576 81.6455 81.6451C81.758 81.5327 81.8472 81.3991 81.908 81.2522C81.9688 81.1052 82.0001 80.9477 82 80.7887V37.6297C82.0001 37.4706 81.9688 37.3131 81.908 37.1661C81.8472 37.0192 81.758 36.8856 81.6455 36.7732C81.5331 36.6607 81.3995 36.5715 81.2526 36.5107C81.1056 36.4499 80.9481 36.4186 80.789 36.4187ZM41 2.90595L65.4492 26.8714H60.9146C60.9077 26.8714 60.9014 26.8714 60.8945 26.8714C60.8876 26.8714 60.8814 26.8714 60.8744 26.8714H21.1256C21.1186 26.8714 21.1124 26.8714 21.1055 26.8714C21.0986 26.8714 21.0923 26.8714 21.0854 26.8714H16.5509L41 2.90595ZM2.42194 38.8406H19.8945V79.5777H2.42194V38.8406ZM28.4869 79.5777V77.8477H53.5131V79.5777H28.4869ZM46.4459 71.2739H35.5541V57.6072H46.4459V71.2739ZM50.4317 73.6958V75.4258H31.5683V73.6958H50.4317ZM55.9351 79.5777V76.6367C55.9352 76.4777 55.9039 76.3202 55.8431 76.1732C55.7823 76.0263 55.6931 75.8927 55.5806 75.7803C55.4681 75.6678 55.3346 75.5786 55.1876 75.5178C55.0407 75.4569 54.8832 75.4257 54.7241 75.4258H52.8557V72.4848C52.8558 72.3258 52.8246 72.1683 52.7637 72.0213C52.7029 71.8744 52.6137 71.7408 52.5013 71.6284C52.3888 71.5159 52.2553 71.4267 52.1083 71.3659C51.9613 71.305 51.8038 71.2738 51.6448 71.2739H48.8678V56.3962C48.8679 56.2372 48.8367 56.0797 48.7759 55.9327C48.715 55.7858 48.6258 55.6522 48.5134 55.5398C48.4009 55.4273 48.2674 55.3381 48.1204 55.2773C47.9734 55.2164 47.8159 55.1852 47.6569 55.1853H34.3431C34.1841 55.1852 34.0266 55.2164 33.8796 55.2773C33.7326 55.3381 33.5991 55.4273 33.4866 55.5398C33.3742 55.6522 33.285 55.7858 33.2241 55.9327C33.1633 56.0797 33.1321 56.2372 33.1322 56.3962V71.2739H30.3573C30.1982 71.2738 30.0407 71.305 29.8938 71.3659C29.7468 71.4267 29.6133 71.5159 29.5008 71.6284C29.3883 71.7408 29.2991 71.8744 29.2383 72.0213C29.1775 72.1683 29.1462 72.3258 29.1463 72.4848V75.4258H27.278C27.1189 75.4257 26.9614 75.4569 26.8144 75.5178C26.6675 75.5786 26.534 75.6678 26.4215 75.7803C26.309 75.8927 26.2198 76.0263 26.159 76.1732C26.0982 76.3202 26.0669 76.4777 26.067 76.6367V79.5777H22.3165V29.2933H59.6835V79.5777H55.9351ZM79.5781 79.5777H62.1055V38.8406H79.5781V79.5777Z" fill="#5586D9" fill-opacity="0.6"/>
<path d="M53.0937 48.4783H28.9068C28.5856 48.4783 28.2776 48.6059 28.0505 48.833C27.8234 49.0601 27.6958 49.3681 27.6958 49.6892C27.6958 50.0104 27.8234 50.3184 28.0505 50.5455C28.2776 50.7726 28.5856 50.9002 28.9068 50.9002H53.0937C53.4148 50.9002 53.7228 50.7726 53.9499 50.5455C54.177 50.3184 54.3046 50.0104 54.3046 49.6892C54.3046 49.3681 54.177 49.0601 53.9499 48.833C53.7228 48.6059 53.4148 48.4783 53.0937 48.4783Z" fill="#5586D9" fill-opacity="0.6"/>
<path d="M28.979 43.5091H33.7295C33.8886 43.5092 34.0461 43.478 34.193 43.4172C34.34 43.3563 34.4735 43.2671 34.586 43.1547C34.6985 43.0422 34.7877 42.9087 34.8485 42.7617C34.9093 42.6147 34.9406 42.4572 34.9405 42.2982V37.6273C34.9406 37.4682 34.9093 37.3107 34.8485 37.1638C34.7877 37.0168 34.6985 36.8833 34.586 36.7708C34.4735 36.6583 34.34 36.5691 34.193 36.5083C34.0461 36.4475 33.8886 36.4162 33.7295 36.4163H28.979C28.82 36.4162 28.6625 36.4475 28.5155 36.5083C28.3685 36.5691 28.235 36.6583 28.1226 36.7708C28.0101 36.8833 27.9209 37.0168 27.8601 37.1638C27.7992 37.3107 27.768 37.4682 27.7681 37.6273V42.2982C27.768 42.4572 27.7992 42.6147 27.8601 42.7617C27.9209 42.9087 28.0101 43.0422 28.1226 43.1547C28.235 43.2671 28.3685 43.3563 28.5155 43.4172C28.6625 43.478 28.82 43.5092 28.979 43.5091ZM30.19 38.8383H32.5185V41.0872H30.19V38.8383Z" fill="#5586D9" fill-opacity="0.6"/>
<path d="M38.6241 43.5091H43.3752C43.6964 43.5091 44.0044 43.3816 44.2315 43.1545C44.4586 42.9274 44.5862 42.6193 44.5862 42.2982V37.6273C44.5862 37.3061 44.4586 36.9981 44.2315 36.771C44.0044 36.5439 43.6964 36.4163 43.3752 36.4163H38.6241C38.3029 36.4163 37.9949 36.5439 37.7678 36.771C37.5407 36.9981 37.4131 37.3061 37.4131 37.6273V42.2982C37.4131 42.6193 37.5407 42.9274 37.7678 43.1545C37.9949 43.3816 38.3029 43.5091 38.6241 43.5091ZM39.835 38.8383H42.1642V41.0872H39.835V38.8383Z" fill="#5586D9" fill-opacity="0.6"/>
<path d="M48.2705 43.5091H53.021C53.1801 43.5092 53.3376 43.478 53.4845 43.4172C53.6315 43.3563 53.765 43.2671 53.8775 43.1547C53.99 43.0422 54.0792 42.9087 54.14 42.7617C54.2008 42.6147 54.2321 42.4572 54.232 42.2982V37.6273C54.2321 37.4682 54.2008 37.3107 54.14 37.1638C54.0792 37.0168 53.99 36.8833 53.8775 36.7708C53.765 36.6583 53.6315 36.5691 53.4845 36.5083C53.3376 36.4475 53.1801 36.4162 53.021 36.4163H48.2705C48.1115 36.4162 47.954 36.4475 47.807 36.5083C47.6601 36.5691 47.5265 36.6583 47.4141 36.7708C47.3016 36.8833 47.2124 37.0168 47.1516 37.1638C47.0907 37.3107 47.0595 37.4682 47.0596 37.6273V42.2982C47.0595 42.4572 47.0907 42.6147 47.1516 42.7617C47.2124 42.9087 47.3016 43.0422 47.4141 43.1547C47.5265 43.2671 47.6601 43.3563 47.807 43.4172C47.954 43.478 48.1115 43.5092 48.2705 43.5091ZM49.4815 38.8383H51.81V41.0872H49.4815V38.8383Z" fill="#5586D9" fill-opacity="0.6"/>
<path d="M13.4937 43.3112H8.82279C8.66373 43.3111 8.50622 43.3424 8.35926 43.4032C8.2123 43.464 8.07877 43.5532 7.9663 43.6657C7.85383 43.7782 7.76464 43.9117 7.70381 44.0587C7.64299 44.2056 7.61173 44.3631 7.61182 44.5222V49.2727C7.61173 49.4317 7.64299 49.5892 7.70381 49.7362C7.76464 49.8831 7.85383 50.0167 7.9663 50.1291C8.07877 50.2416 8.2123 50.3308 8.35926 50.3916C8.50622 50.4525 8.66373 50.4837 8.82279 50.4836H13.4937C13.6527 50.4837 13.8102 50.4525 13.9572 50.3916C14.1042 50.3308 14.2377 50.2416 14.3502 50.1291C14.4626 50.0167 14.5518 49.8831 14.6126 49.7362C14.6735 49.5892 14.7047 49.4317 14.7046 49.2727V44.5222C14.7047 44.3631 14.6735 44.2056 14.6126 44.0587C14.5518 43.9117 14.4626 43.7782 14.3502 43.6657C14.2377 43.5532 14.1042 43.464 13.9572 43.4032C13.8102 43.3424 13.6527 43.3111 13.4937 43.3112ZM12.2827 48.0617H10.0338V45.7332H12.2827V48.0617Z" fill="#5586D9" fill-opacity="0.6"/>
<path d="M13.4937 52.9568H8.82279C8.66373 52.9567 8.50622 52.988 8.35926 53.0488C8.2123 53.1096 8.07877 53.1988 7.9663 53.3113C7.85383 53.4237 7.76464 53.5573 7.70381 53.7042C7.64299 53.8512 7.61173 54.0087 7.61182 54.1678V58.9217C7.61182 59.2429 7.7394 59.5509 7.9665 59.778C8.1936 60.0051 8.50162 60.1327 8.82279 60.1327H13.4937C13.8148 60.1327 14.1229 60.0051 14.35 59.778C14.5771 59.5509 14.7046 59.2429 14.7046 58.9217V54.1678C14.7047 54.0087 14.6735 53.8512 14.6126 53.7042C14.5518 53.5573 14.4626 53.4237 14.3502 53.3113C14.2377 53.1988 14.1042 53.1096 13.9572 53.0488C13.8102 52.988 13.6527 52.9567 13.4937 52.9568ZM12.2827 57.7079H10.0338V55.3787H12.2827V57.7079Z" fill="#5586D9" fill-opacity="0.6"/>
<path d="M13.4937 62.6031H8.82279C8.66373 62.603 8.50622 62.6343 8.35926 62.6951C8.2123 62.7559 8.07877 62.8451 7.9663 62.9576C7.85383 63.07 7.76464 63.2036 7.70381 63.3505C7.64299 63.4975 7.61173 63.655 7.61182 63.8141V68.5645C7.61173 68.7236 7.64299 68.8811 7.70381 69.028C7.76464 69.175 7.85383 69.3085 7.9663 69.421C8.07877 69.5335 8.2123 69.6227 8.35926 69.6835C8.50622 69.7443 8.66373 69.7756 8.82279 69.7755H13.4937C13.6527 69.7756 13.8102 69.7443 13.9572 69.6835C14.1042 69.6227 14.2377 69.5335 14.3502 69.421C14.4626 69.3085 14.5518 69.175 14.6126 69.028C14.6735 68.8811 14.7047 68.7236 14.7046 68.5645V63.8141C14.7047 63.655 14.6735 63.4975 14.6126 63.3505C14.5518 63.2036 14.4626 63.07 14.3502 62.9576C14.2377 62.8451 14.1042 62.7559 13.9572 62.6951C13.8102 62.6343 13.6527 62.603 13.4937 62.6031ZM12.2827 67.3536H10.0338V65.025H12.2827V67.3536Z" fill="#5586D9" fill-opacity="0.6"/>
<path d="M68.5064 50.4836H73.1773C73.3363 50.4837 73.4938 50.4525 73.6408 50.3916C73.7878 50.3308 73.9213 50.2416 74.0338 50.1291C74.1462 50.0167 74.2354 49.8831 74.2962 49.7362C74.3571 49.5892 74.3883 49.4317 74.3882 49.2727V44.5222C74.3883 44.3631 74.3571 44.2056 74.2962 44.0587C74.2354 43.9117 74.1462 43.7782 74.0338 43.6657C73.9213 43.5532 73.7878 43.464 73.6408 43.4032C73.4938 43.3424 73.3363 43.3111 73.1773 43.3112H68.5064C68.3473 43.3111 68.1898 43.3424 68.0429 43.4032C67.8959 43.464 67.7624 43.5532 67.6499 43.6657C67.5374 43.7782 67.4482 43.9117 67.3874 44.0587C67.3266 44.2056 67.2953 44.3631 67.2954 44.5222V49.2727C67.2953 49.4317 67.3266 49.5892 67.3874 49.7362C67.4482 49.8831 67.5374 50.0167 67.6499 50.1291C67.7624 50.2416 67.8959 50.3308 68.0429 50.3916C68.1898 50.4525 68.3473 50.4837 68.5064 50.4836ZM69.7174 45.7332H71.9663V48.0617H69.7174V45.7332Z" fill="#5586D9" fill-opacity="0.6"/>
<path d="M68.5064 60.1299H73.1773C73.4984 60.1299 73.8064 60.0023 74.0336 59.7752C74.2607 59.5481 74.3882 59.2401 74.3882 58.9189V54.1678C74.3883 54.0087 74.3571 53.8512 74.2962 53.7042C74.2354 53.5573 74.1462 53.4237 74.0338 53.3113C73.9213 53.1988 73.7878 53.1096 73.6408 53.0488C73.4938 52.988 73.3363 52.9567 73.1773 52.9568H68.5064C68.3473 52.9567 68.1898 52.988 68.0429 53.0488C67.8959 53.1096 67.7624 53.1988 67.6499 53.3113C67.5374 53.4237 67.4482 53.5573 67.3874 53.7042C67.3266 53.8512 67.2953 54.0087 67.2954 54.1678V58.9217C67.2961 59.2424 67.4241 59.5497 67.6511 59.7762C67.8781 60.0027 68.1857 60.1299 68.5064 60.1299ZM69.7174 55.3787H71.9663V57.7079H69.7174V55.3787Z" fill="#5586D9" fill-opacity="0.6"/>
<path d="M68.5064 69.7755H73.1773C73.3363 69.7756 73.4938 69.7443 73.6408 69.6835C73.7878 69.6227 73.9213 69.5335 74.0338 69.421C74.1462 69.3085 74.2354 69.175 74.2962 69.028C74.3571 68.8811 74.3883 68.7236 74.3882 68.5645V63.8141C74.3883 63.655 74.3571 63.4975 74.2962 63.3505C74.2354 63.2036 74.1462 63.07 74.0338 62.9576C73.9213 62.8451 73.7878 62.7559 73.6408 62.6951C73.4938 62.6343 73.3363 62.603 73.1773 62.6031H68.5064C68.3473 62.603 68.1898 62.6343 68.0429 62.6951C67.8959 62.7559 67.7624 62.8451 67.6499 62.9576C67.5374 63.07 67.4482 63.2036 67.3874 63.3505C67.3266 63.4975 67.2953 63.655 67.2954 63.8141V68.5645C67.2953 68.7236 67.3266 68.8811 67.3874 69.028C67.4482 69.175 67.5374 69.3085 67.6499 69.421C67.7624 69.5335 67.8959 69.6227 68.0429 69.6835C68.1898 69.7443 68.3473 69.7756 68.5064 69.7755ZM69.7174 65.025H71.9663V67.3536H69.7174V65.025Z" fill="#5586D9" fill-opacity="0.6"/>
<path d="M41.0001 25.0042C42.4508 25.0042 43.8689 24.574 45.0752 23.768C46.2814 22.962 47.2216 21.8164 47.7767 20.4761C48.3319 19.1358 48.4772 17.661 48.1941 16.2381C47.9111 14.8153 47.2125 13.5083 46.1867 12.4825C45.1609 11.4567 43.8539 10.7581 42.431 10.4751C41.0082 10.192 39.5334 10.3373 38.1931 10.8925C36.8528 11.4476 35.7072 12.3878 34.9012 13.594C34.0952 14.8003 33.665 16.2184 33.665 17.6691C33.6665 19.614 34.4398 21.4789 35.815 22.8542C37.1903 24.2294 39.0551 25.0027 41.0001 25.0042ZM41.0001 12.7609C41.9718 12.7609 42.9217 13.049 43.7296 13.5889C44.5376 14.1288 45.1673 14.8961 45.5392 15.7938C45.911 16.6916 46.0083 17.6794 45.8187 18.6325C45.6292 19.5855 45.1612 20.4609 44.4741 21.148C43.787 21.8352 42.9116 22.3031 41.9586 22.4927C41.0055 22.6822 40.0177 22.5849 39.1199 22.2131C38.2222 21.8412 37.4548 21.2115 36.915 20.4035C36.3751 19.5956 36.087 18.6457 36.087 17.674C36.087 16.3709 36.6046 15.1213 37.526 14.1999C38.4474 13.2785 39.697 12.7609 41.0001 12.7609Z" fill="#5586D9" fill-opacity="0.6"/>
<path d="M41 18.8822H42.4919C42.8131 18.8822 43.1211 18.7546 43.3482 18.5275C43.5753 18.3004 43.7029 17.9924 43.7029 17.6712C43.7029 17.35 43.5753 17.042 43.3482 16.8149C43.1211 16.5878 42.8131 16.4602 42.4919 16.4602H42.211V14.9344C42.211 14.6133 42.0834 14.3052 41.8563 14.0781C41.6292 13.851 41.3212 13.7234 41 13.7234C40.6789 13.7234 40.3708 13.851 40.1437 14.0781C39.9166 14.3052 39.7891 14.6133 39.7891 14.9344V17.6712C39.789 17.8303 39.8202 17.9878 39.8811 18.1347C39.9419 18.2817 40.0311 18.4152 40.1435 18.5277C40.256 18.6402 40.3895 18.7294 40.5365 18.7902C40.6835 18.851 40.841 18.8823 41 18.8822Z" fill="#5586D9" fill-opacity="0.6"/>
</svg>
